<?xml version="1.0" encoding="utf-8"?>
<!-- Generator: Adobe Illustrator 20.1.0, SVG Export Plug-In . SVG Version: 6.00 Build 0)  -->
<svg version="1.1" id="Layer_1" xmlns="http://www.w3.org/2000/svg" xmlns:xlink="http://www.w3.org/1999/xlink" x="0px" y="0px"
	 width="237.5px" height="734px" viewBox="0 0 237.5 734" style="enable-background:new 0 0 237.5 734;" xml:space="preserve">
<style type="text/css">
	.st0{display:none;}
	.st1{display:inline;fill:#4D4D4D;}
	.st2{display:inline;fill:#FF0000;stroke:#949292;stroke-miterlimit:10;}
	.st3{display:inline;fill:#C45C5C;stroke:#000000;stroke-miterlimit:10;}
	.st4{fill:#FFFFFF;}
	.st5{fill:none;stroke:#FFFFFF;stroke-miterlimit:10;}
	.st6{display:none;fill:#0AA94C;}
	.st7{fill:none;stroke:#FCF7F7;stroke-miterlimit:10;}
	.st8{fill:#A2A1A1;}
	.st9{fill:none;stroke:#6ABD6E;stroke-miterlimit:10;}
	.st10{fill:#FF9A48;}
	.st11{fill:#CBCBCB;}
	.st12{fill:#7AAE80;stroke:#7AAE80;stroke-miterlimit:10;}
	.st13{fill:none;stroke:#8B8B8B;stroke-miterlimit:10;}
	.st14{fill:none;stroke:#D6D6D6;stroke-miterlimit:10;}
	.st15{fill:#D6D6D6;}
	.st16{fill:#BABABA;stroke:#BABABA;stroke-width:0.5;stroke-miterlimit:10;}
	.st17{fill:#BABABA;}
	.st18{fill:#4299A9;stroke:#4299A9;stroke-miterlimit:10;}
	.st19{fill:#2795EE;}
	.st20{fill:#4B5463;}
	.st21{fill:#3777E3;}
	.st22{fill:#FFCF63;}
	.st23{fill:#11A861;}
	.st24{fill:#C8C8C8;}
	.st25{fill:#FFB507;}
	.st26{fill:#FFAB18;}
	.st27{fill:#FF0025;stroke:#FF7800;stroke-miterlimit:10;}
	.st28{fill:#FF7800;}
	.st29{fill:#DC4E41;}
	.st30{clip-path:url(#SVGID_2_);fill:url(#SVGID_3_);}
	.st31{clip-path:url(#SVGID_5_);fill:url(#SVGID_6_);}
	.st32{clip-path:url(#SVGID_8_);fill:url(#SVGID_9_);}
	.st33{clip-path:url(#SVGID_11_);fill:url(#SVGID_12_);}
	.st34{fill:#B8B8B8;}
	.st35{opacity:0.9;clip-path:url(#SVGID_14_);fill:#4D6B86;enable-background:new    ;}
	.st36{opacity:0.9;clip-path:url(#SVGID_16_);fill:#4D6B86;enable-background:new    ;}
	.st37{fill:#4D6C86;}
	.st38{fill:none;stroke:#BABABA;stroke-miterlimit:10;}
	.st39{fill:#7078A2;}
	.st40{fill:none;stroke:#CBCBCB;stroke-width:0.5;stroke-miterlimit:10;}
	.st41{fill:#FF0025;stroke:#FFFFFF;stroke-miterlimit:10;}
	.st42{fill:none;stroke:#A1A0A0;stroke-width:0.25;stroke-miterlimit:10;}
	.st43{fill:none;stroke:#A19FA0;stroke-width:0.25;stroke-miterlimit:10;}
	.st44{fill:#A09E9F;}
	.st45{fill:#9E9D9E;}
	.st46{fill:#42C09A;}
	.st47{fill:#737A86;}
	.st48{fill:#1574BB;}
	.st49{fill:#31B33A;}
	.st50{fill:#FEFEFE;}
	.st51{fill:#0D4459;}
	.st52{fill:#FCFCFC;}
	.st53{fill:#F6B119;}
	.st54{fill:#D2D5DA;stroke:#FFFFFF;stroke-miterlimit:10;}
	.st55{fill:#FFFFFF;stroke:#FFFFFF;stroke-miterlimit:10;}
	.st56{fill:#F05228;}
	.st57{fill:#5D6371;}
	.st58{fill:#69D14D;}
	.st59{fill:#63ABDF;}
	.st60{fill:#DEE0E4;}
	.st61{fill:#A2B0C3;}
	.st62{enable-background:new    ;}
	.st63{fill:#B9C7E6;}
	.st64{fill:#6AA7D9;}
	.st65{fill:#80B4DE;}
	.st66{fill:#81B4DE;}
	.st67{fill:#82B4DE;}
	.st68{fill:#4492D1;}
	.st69{fill:#949292;}
	.st70{fill:#949291;}
	.st71{fill:#BEBDBB;}
	.st72{fill:#A6A6A6;}
	.st73{fill:#FFFFFF;stroke:#949292;stroke-miterlimit:10;}
	.st74{fill:#FFCE01;}
	.st75{fill:#002E66;}
	.st76{fill-rule:evenodd;clip-rule:evenodd;fill:#687FFC;}
</style>
<g id="Layer_2_2_" class="st0">
	<rect x="-16" y="-15" class="st1" width="305" height="749"/>
</g>
<g id="Layer_2" class="st0">
	<rect x="-14" y="-20" class="st2" width="264" height="754"/>
</g>
<g id="Layer_2_1_" class="st0">
	<rect x="-32.8" y="-16.7" class="st3" width="303" height="750.7"/>
</g>
<polyline class="st4" points="191.1,441.7 191.1,464 171.3,464 171.3,438.4 187.1,438.4 "/>
<path class="st5" d="M296,1511.4h-18c-0.8,0-1.5,0.7-1.5,1.5v18c0,0.9,0.7,1.5,1.5,1.5h18c0.8,0,1.5-0.7,1.5-1.5v-18
	C297.5,1512,296.8,1511.4,296,1511.4z M296.2,1530.9c0,0.1-0.1,0.2-0.2,0.2h-18c-0.1,0-0.2-0.1-0.2-0.2v-18c0-0.1,0.1-0.2,0.2-0.2
	h18c0.1,0,0.2,0.1,0.2,0.2V1530.9z"/>
<path class="st5" d="M285.4,1514.9h-5.7c-0.5,0-0.9,0.4-0.9,0.9v2.5c0,0.5,0.4,0.9,0.9,0.9h5.7c0.5,0,0.9-0.4,0.9-0.9v-2.5
	C286.2,1515.3,285.8,1514.9,285.4,1514.9z M285.4,1518.2h-5.7v-2.5h5.7V1518.2z M285.4,1518.6v-0.4V1518.6z"/>
<path class="st5" d="M294.3,1525h-5.7c-0.5,0-0.9,0.4-0.9,0.9v2.5c0,0.5,0.4,0.9,0.9,0.9h5.7c0.5,0,0.9-0.4,0.9-0.9v-2.5
	C295.2,1525.4,294.8,1525,294.3,1525z M294.3,1528.3h-5.7v-2.5h5.7V1528.3z M294.3,1528.7v-0.4V1528.7z"/>
<path class="st5" d="M285.8,1520.6h-6.5c-0.2,0-0.4,0.2-0.4,0.4s0.2,0.4,0.4,0.4h6.5c0.2,0,0.4-0.2,0.4-0.4S286,1520.6,285.8,1520.6
	z"/>
<path class="st5" d="M285.8,1523h-6.5c-0.2,0-0.4,0.2-0.4,0.4s0.2,0.4,0.4,0.4h6.5c0.2,0,0.4-0.2,0.4-0.4S286,1523,285.8,1523z"/>
<path class="st5" d="M285.8,1525.5h-6.5c-0.2,0-0.4,0.2-0.4,0.4s0.2,0.4,0.4,0.4h6.5c0.2,0,0.4-0.2,0.4-0.4S286,1525.5,285.8,1525.5
	z"/>
<path class="st5" d="M285.8,1527.9h-6.5c-0.2,0-0.4,0.2-0.4,0.4s0.2,0.4,0.4,0.4h6.5c0.2,0,0.4-0.2,0.4-0.4S286,1527.9,285.8,1527.9
	z"/>
<path class="st5" d="M294.8,1515.7h-6.5c-0.2,0-0.4,0.2-0.4,0.4s0.2,0.4,0.4,0.4h6.5c0.2,0,0.4-0.2,0.4-0.4S295,1515.7,294.8,1515.7
	z"/>
<path class="st5" d="M294.8,1518.1h-6.5c-0.2,0-0.4,0.2-0.4,0.4s0.2,0.4,0.4,0.4h6.5c0.2,0,0.4-0.2,0.4-0.4S295,1518.1,294.8,1518.1
	z"/>
<path class="st5" d="M294.8,1520.6h-6.5c-0.2,0-0.4,0.2-0.4,0.4s0.2,0.4,0.4,0.4h6.5c0.2,0,0.4-0.2,0.4-0.4S295,1520.6,294.8,1520.6
	z"/>
<path class="st5" d="M294.8,1523h-6.5c-0.2,0-0.4,0.2-0.4,0.4s0.2,0.4,0.4,0.4h6.5c0.2,0,0.4-0.2,0.4-0.4S295,1523,294.8,1523z"/>
<rect class="st6" width="244.5" height="424.5"/>
<path class="st4" d="M8.5,9.5v2h24v-2H8.5z M8.5,17.5h24v-2h-24V17.5z M8.5,23.5h24v-2h-24V23.5z"/>
<path class="st7" d="M8.5,9.5v2h24v-2H8.5z M8.5,17.5h24v-2h-24V17.5z M8.5,23.5h24v-2h-24V23.5z"/>
<path class="st8" d="M24.1,49.6l-0.8-0.8c-0.1-0.1-0.3-0.1-0.4,0l-4.5,4.4L14,48.8c-0.1-0.1-0.3-0.1-0.4,0l-0.8,0.8
	c-0.1,0.1-0.1,0.3,0,0.4l5.4,5.4c0.1,0.1,0.3,0.1,0.4,0l0.6-0.6l4.9-4.8C24.2,49.9,24.2,49.7,24.1,49.6z"/>
<path class="st8" d="M24.1,49.6l-0.8-0.8c-0.1-0.1-0.3-0.1-0.4,0l-4.5,4.4L14,48.8c-0.1-0.1-0.3-0.1-0.4,0l-0.8,0.8
	c-0.1,0.1-0.1,0.3,0,0.4l5.4,5.4c0.1,0.1,0.3,0.1,0.4,0l0.6-0.6l4.9-4.8C24.2,49.9,24.2,49.7,24.1,49.6z"/>
<path class="st9" d="M58.5,22.4c-0.1,0-0.3-0.1-0.4-0.2l-3.3-3.3c-0.2-0.2-0.2-0.6,0-0.8s0.6-0.2,0.8,0l2.9,2.9l8.2-8.2
	c0.2-0.2,0.6-0.2,0.8,0s0.2,0.6,0,0.8l-8.6,8.6C58.8,22.3,58.6,22.4,58.5,22.4z"/>
<path class="st10" d="M69.4,46.1l-3.3-3.3c-0.3-0.3-0.7-0.3-1,0l-6.7,6.7c-0.1,0.1-0.2,0.3-0.2,0.5v3.4c0,0.2,0.1,0.4,0.2,0.5
	s0.3,0.2,0.5,0.2l3.3-0.1c0.2,0,0.3-0.1,0.5-0.2l6.8-6.8C69.6,46.8,69.6,46.3,69.4,46.1z M61.8,52.6h-2.3v-2.5l3.4-3.4l2.4,2.4
	L61.8,52.6z M66.2,48.2l-2.4-2.4l1.7-1.7l2.4,2.4L66.2,48.2z M66.3,52.4c-0.4,0-0.7,0.3-0.7,0.7v5.6H54.4v-14h6
	c0.4,0,0.7-0.3,0.7-0.7s-0.3-0.7-0.7-0.7h-6.7c-0.4,0-0.7,0.3-0.7,0.7v15.3c0,0.4,0.3,0.7,0.7,0.7h12.5c0.4,0,0.7-0.3,0.7-0.7V53
	C66.9,52.7,66.6,52.4,66.3,52.4z"/>
<polygon class="st4" points="23.9,100.9 19.8,96.7 23.9,92.6 22.9,91.6 18.8,95.7 14.6,91.6 13.6,92.6 17.7,96.7 13.6,100.8 
	14.6,101.9 18.8,97.8 22.9,101.9 "/>
<path class="st4" d="M126.5,20.2c-0.3-0.3-0.8-0.3-1.1,0l-3.1,2.6V9.7c0-0.4-0.4-0.7-0.8-0.7s-0.8,0.3-0.8,0.7v13.1l-3.1-2.6
	c-0.3-0.3-0.8-0.3-1.1,0c-0.2,0.1-0.2,0.3-0.2,0.5s0.1,0.3,0.2,0.5l4.5,3.7c0.1,0.1,0.4,0.2,0.6,0.2s0.4-0.1,0.6-0.2l4.5-3.7
	C126.8,20.9,126.8,20.4,126.5,20.2z M115.9,12.9l-4.5-3.7C111.2,9.1,111,9,110.8,9s-0.4,0.1-0.6,0.2l-4.5,3.7
	c-0.3,0.3-0.3,0.7,0,0.9c0.3,0.3,0.8,0.3,1.1,0l3.1-2.6v13.1c0,0.4,0.4,0.7,0.8,0.7s0.8-0.3,0.8-0.7V11.2l3.1,2.6
	c0.3,0.3,0.8,0.3,1.1,0c0.2-0.1,0.2-0.3,0.2-0.5C116.1,13.2,116,13,115.9,12.9z"/>
<path class="st5" d="M107.2,50.8l2.1,4.1l4.3,0.9l-3,3.4l0.5,4.6l-4-2l-4,2l0.5-4.6l-3-3.4l4.3-0.9L107.2,50.8"/>
<path class="st11" d="M170.2,56.6h-11.1c-0.2,0-0.4,0.2-0.4,0.4s0.2,0.4,0.4,0.4h3.4v1.5c0,0.2,0.2,0.4,0.4,0.4h3.5
	c0.2,0,0.4-0.2,0.4-0.4v-1.5h3.4c0.2,0,0.4-0.2,0.4-0.4S170.4,56.6,170.2,56.6L170.2,56.6z M166,58.5h-2.7v-1.1h2.7V58.5z
	 M171.4,52.3h-4.2V52c0-1.4-1.1-2.5-2.5-2.5s-2.5,1.1-2.5,2.5v0.2H158c-0.8,0-1.4,0.6-1.4,1.4v9.1c0,0.8,0.6,1.4,1.4,1.4h13.5
	c0.8,0,1.4-0.6,1.4-1.4v-9.1C172.8,52.9,172.2,52.3,171.4,52.3z M163.1,52c0-0.9,0.7-1.5,1.5-1.5c0.9,0,1.6,0.7,1.6,1.5v0.2h-3.1V52
	z M171.9,62.8c0,0.3-0.2,0.5-0.5,0.5h-13.5c-0.3,0-0.5-0.2-0.5-0.5v-9.1c0-0.3,0.2-0.5,0.5-0.5h13.5c0.3,0,0.5,0.2,0.5,0.5
	C171.9,53.7,171.9,62.8,171.9,62.8z"/>
<path class="st12" d="M107.1,91.6c-4.7,0-8.5,3.8-8.5,8.5s3.8,8.5,8.5,8.5s8.5-3.8,8.5-8.5S111.8,91.6,107.1,91.6z M107.1,108
	c-4.4,0-7.9-3.6-7.9-7.9c0-4.4,3.6-7.9,7.9-7.9s7.9,3.6,7.9,7.9S111.5,108,107.1,108z M109.9,97.5l-4.1,4.1l-1.5-1.5
	c-0.1-0.1-0.3-0.1-0.4,0s-0.1,0.3,0,0.4l1.7,1.7c0.1,0.1,0.1,0.1,0.2,0.1s0.1,0,0.2-0.1l4.3-4.3c0.1-0.1,0.1-0.3,0-0.4
	C110.2,97.3,110,97.3,109.9,97.5z"/>
<path class="st4" d="M91,141.7l7.6-7.6l1.4,1.4l-5.3,5.3h11.5v1.9H94.8l5.3,5.3l-1.4,1.4L91,141.7L91,141.7z"/>
<path class="st13" d="M150.2,148.2l-5-3.7c-0.1-0.1-0.3-0.1-0.4,0l-0.5,0.5l-0.5,0.5c-0.9,0.9-2.4,0.7-3.9-0.2
	c-0.6-0.3-1.1-0.8-1.6-1.3s-0.9-1.1-1.3-1.6c-0.9-1.4-1.1-2.9-0.2-3.9l1-1c0.1-0.1,0.1-0.3,0-0.4l-3.7-5c-0.1-0.1-0.3-0.2-0.4-0.1
	l-1.8,1.7c-1.4,1.4-1.7,3.1-1,5.3c0.7,2.1,2.3,4.5,5,7.2l0.1,0.1l0.4,0.4c2.6,2.5,4.9,4.1,6.9,4.7c2.1,0.6,3.8,0.3,5.1-1l0.4-0.4
	c0-0.1,0.1-0.1,0.1-0.2s0-0.1-0.1-0.2l-1.3-0.9l-1.3-0.9l-1.3-0.9c-0.1-0.1-0.3-0.1-0.4,0.1c-0.1,0.1-0.1,0.3,0.1,0.4l1.3,0.9
	l1.3,0.9l1,0.7L148,150c-1.1,1.1-2.7,1.4-4.5,0.9c-1.9-0.6-4.2-2.1-6.7-4.5l-0.4-0.4l-0.1-0.1c-2.6-2.6-4.2-5-4.8-6.9
	s-0.3-3.5,0.9-4.6l0.1-0.1l0.7,1l0.9,1.3l0.9,1.3c0.1,0.1,0.3,0.2,0.4,0.1s0.2-0.3,0.1-0.4l-0.9-1.3l-0.9-1.3l-0.8-1.1l0.9-0.9
	l3.3,4.5l-0.8,0.8c-1.2,1.2-0.9,3,0.1,4.6c0.4,0.6,0.9,1.2,1.4,1.7s1.1,1,1.7,1.4c1.6,1,3.4,1.3,4.6,0.1l0.5-0.5l0.3-0.3l4.8,3.5
	c0.1,0.1,0.3,0.1,0.4-0.1C150.3,148.4,150.3,148.2,150.2,148.2L150.2,148.2z"/>
<path class="st14" d="M18,183.4C18.1,183.4,18.1,183.4,18,183.4l4.3-0.7c0,0,0.1,0,0.1-0.1l10-10c0-0.1,0.1-0.1,0.1-0.2
	s0-0.1-0.1-0.2l-3.6-3.6c-0.1-0.1-0.4-0.1-0.5,0l-10,10c0,0,0,0.1-0.1,0.1l-0.7,4.3c0,0.1,0,0.2,0.1,0.2
	C17.9,183.4,18,183.4,18,183.4z M28.7,169.2l3.1,3.1l-9.5,9.5l-3.1-3.1L28.7,169.2z M19,179.5l2.1,2.2l0.5,0.5l-3.2,0.5L19,179.5z"
	/>
<polygon class="st15" points="68.1,180.5 62.1,180.5 62.1,174.5 60.1,174.5 60.1,180.5 54.1,180.5 54.1,182.5 60.1,182.5 
	60.1,188.5 62.1,188.5 62.1,182.5 68.1,182.5 "/>
<path class="st15" d="M94.6,182.1c-1.3,0-2.3-1-2.3-2.2s1-2.2,2.3-2.2s2.3,1,2.3,2.2S95.8,182.1,94.6,182.1z M94.6,175.5
	c-1.3,0-2.3-1-2.3-2.2s1-2.2,2.3-2.2s2.3,1,2.3,2.2S95.8,175.5,94.6,175.5z M94.6,184.3c1.3,0,2.3,1,2.3,2.2s-1,2.2-2.3,2.2
	s-2.3-1-2.3-2.2S93.3,184.3,94.6,184.3z"/>
<path class="st4" d="M135,191.2C135.1,191.2,135.1,191.2,135,191.2l4.9-0.8h0.1c0,0,0.1,0,0.1-0.1l11.1-11.1
	c0.1-0.1,0.1-0.2,0.1-0.3s0-0.2-0.1-0.3l-4-4c-0.1-0.1-0.4-0.1-0.5,0l-11.1,11.1l-0.1,0.1v0.1l-0.8,4.8c0,0.1,0,0.2,0.1,0.3
	C134.9,191.2,134.9,191.2,135,191.2z M146.9,175.4l3.5,3.5l-10.6,10.6l-3.5-3.5L146.9,175.4z M136.1,186.8l2.4,2.4l0.6,0.6l-3.6,0.6
	L136.1,186.8z"/>
<circle class="st4" cx="179.2" cy="177.4" r="5.2"/>
<path class="st4" d="M179.2,185.2c-8,0-10.5,5.2-10.5,5.2v2.6h21v-2.6C189.8,190.5,187.3,185.3,179.2,185.2z"/>
<path class="st16" d="M138.7,221c-3.4,0-6,2.1-9.2,5.5c2.8,2.9,5.1,5.5,9.2,5.5s7.1-3.3,9.2-5.5C145.8,224,142.8,221,138.7,221z
	 M138.7,231.4c-3.6,0-5.9-2.3-8.4-4.9c3-3.1,5.4-4.9,8.4-4.9c3.5,0,6.3,2.6,8.4,4.9C145.1,228.7,142.3,231.4,138.7,231.4z
	 M138.7,222.8c-2,0-3.7,1.7-3.7,3.7s1.6,3.7,3.7,3.7c2,0,3.7-1.6,3.7-3.7S140.7,222.8,138.7,222.8z M138.7,229.6
	c-1.7,0-3.1-1.4-3.1-3.1s1.4-3.1,3.1-3.1s3.1,1.4,3.1,3.1S140.4,229.6,138.7,229.6z M138.7,224.4c-1.2,0-2.1,1-2.1,2.1
	c0,1.2,1,2.1,2.1,2.1c1.2,0,2.1-1,2.1-2.1C140.9,225.3,139.9,224.4,138.7,224.4z M138.7,228.1c-0.8,0-1.5-0.7-1.5-1.5
	s0.7-1.5,1.5-1.5s1.5,0.7,1.5,1.5S139.5,228,138.7,228.1z"/>
<path class="st17" d="M212.7,97.7l-5.2,5.6l-5.2-5.6c-0.2-0.2-0.5-0.2-0.7,0.1s-0.2,0.6,0,0.9l5.6,5.9c0.1,0.1,0.2,0.2,0.3,0.2
	s0.2-0.1,0.3-0.2l5.6-5.9c0.2-0.2,0.2-0.6,0-0.9C213.3,97.6,212.9,97.5,212.7,97.7L212.7,97.7z"/>
<path class="st17" d="M214.1,95.2H201c-0.8,0-1.5,0.8-1.5,1.8v9.6c0,1,0.7,1.8,1.5,1.8h13.1c0.8,0,1.5-0.8,1.5-1.8V97
	C215.6,96,214.9,95.2,214.1,95.2z M214.6,106.6c0,0.3-0.2,0.6-0.5,0.6H201c-0.3,0-0.5-0.3-0.5-0.6V97c0-0.3,0.2-0.6,0.5-0.6h13.1
	c0.3,0,0.5,0.3,0.5,0.6V106.6z"/>
<path class="st4" d="M205.4,19.9l0.8,0.8c0.1,0.1,0.3,0.1,0.4,0l4.5-4.4l4.4,4.4c0.1,0.1,0.3,0.1,0.4,0l0.8-0.8
	c0.1-0.1,0.1-0.3,0-0.4l-5.4-5.4c-0.1-0.1-0.3-0.1-0.4,0l-0.6,0.6l-4.9,4.8C205.3,19.6,205.3,19.8,205.4,19.9z"/>
<path class="st4" d="M205.4,19.9l0.8,0.8c0.1,0.1,0.3,0.1,0.4,0l4.5-4.4l4.4,4.4c0.1,0.1,0.3,0.1,0.4,0l0.8-0.8
	c0.1-0.1,0.1-0.3,0-0.4l-5.4-5.4c-0.1-0.1-0.3-0.1-0.4,0l-0.6,0.6l-4.9,4.8C205.3,19.6,205.3,19.8,205.4,19.9z"/>
<path class="st4" d="M216.7,32.9l-0.8-0.8c-0.1-0.1-0.3-0.1-0.4,0l-4.5,4.4l-4.4-4.4c-0.1-0.1-0.3-0.1-0.4,0l-0.8,0.8
	c-0.1,0.1-0.1,0.3,0,0.4l5.4,5.4c0.1,0.1,0.3,0.1,0.4,0l0.6-0.6l4.9-4.8C216.8,33.2,216.8,33,216.7,32.9z"/>
<path class="st4" d="M216.7,32.9l-0.8-0.8c-0.1-0.1-0.3-0.1-0.4,0l-4.5,4.4l-4.4-4.4c-0.1-0.1-0.3-0.1-0.4,0l-0.8,0.8
	c-0.1,0.1-0.1,0.3,0,0.4l5.4,5.4c0.1,0.1,0.3,0.1,0.4,0l0.6-0.6l4.9-4.8C216.8,33.2,216.8,33,216.7,32.9z"/>
<polygon class="st11" points="26.4,266.9 22.3,262.8 26.4,258.7 25.4,257.6 21.2,261.8 17.1,257.6 16.1,258.6 20.2,262.8 
	16.1,266.9 17.1,267.9 21.2,263.8 25.4,268 "/>
<path class="st18" d="M62.9,253.2h-8.7c-0.8,0-1.5,0.7-1.5,1.5v17.8c0,0.8,0.7,1.5,1.5,1.5h8.7c0.8,0,1.5-0.7,1.5-1.5v-17.8
	C64.4,253.9,63.7,253.2,62.9,253.2z M56.3,254.1h4.3c0.1,0,0.2,0.2,0.2,0.4s-0.1,0.4-0.2,0.4h-4.3c-0.1,0-0.2-0.2-0.2-0.4
	S56.2,254.1,56.3,254.1z M58.5,272.5c-0.5,0-1-0.4-1-1s0.4-1,1-1c0.5,0,1,0.4,1,1S59,272.5,58.5,272.5z M63.2,269.2h-9.5v-13.4h9.5
	V269.2z"/>
<path class="st19" d="M86.6,268.6l-4,3.1l-2.4-1.4v1.5l6.4,4.2l6.4-4.2v-1.5l-2.3,1.4L86.6,268.6z M97.1,259.9l-6.2-3.9l-4.3,3.5
	l6.4,3.7L97.1,259.9L97.1,259.9z M76.2,266.7l6.3,3.7l4.1-3.2l-6.1-3.9L76.2,266.7z M82.5,256l-6.3,4.1l4.4,3.3l6.1-3.9L82.5,256
	L82.5,256z M86.6,267.3l4.2,3.2l6.3-3.7l-4-3.4L86.6,267.3z"/>
<path class="st20" d="M112.7,261.5c0.5,0.3,7,3.3,7.2,3.5c0.2,0.1,0.9,0.6,0.9,0.6l0.9-0.2c0,0,6.8-3.6,7.2-3.9c0.5-0.2,0.9-1,0.1-1
	h-16.3C111.8,260.4,112.2,261.2,112.7,261.5z M129.1,263c-0.5,0.3-7.1,3.7-7.4,3.9s-0.6,0.2-0.9,0.2s-0.5,0-0.9-0.2
	c-0.3-0.2-6.9-3.6-7.4-3.9c-0.4-0.2-0.4,0-0.4,0.2v7.1c0,0.4,0.5,0.9,1,0.9h15.4c0.4,0,1-0.5,1-0.9v-7.1
	C129.5,263,129.5,262.8,129.1,263z"/>
<g id="Livello_x0020_1">
	<polygon class="st21" points="146.6,272.9 149.8,267.4 162.5,267.4 159.3,272.9 	"/>
	<polygon class="st22" points="156.1,267.4 162.5,267.4 156.1,256.4 149.8,256.4 	"/>
	<polygon class="st23" points="143.4,267.4 146.6,272.9 152.9,261.9 149.8,256.4 	"/>
</g>
<path class="st24" d="M208.1,55.4l-0.9,0.8c-0.1,0.1-0.1,0.3,0,0.4l4.8,5l-4.8,4.8c-0.1,0.1-0.1,0.3,0,0.4l0.9,0.9
	c0.1,0.1,0.3,0.1,0.4,0l5.9-5.8c0.1-0.1,0.1-0.3,0-0.4l-0.7-0.7l-5.1-5.3C208.4,55.3,208.2,55.3,208.1,55.4L208.1,55.4z"/>
<path class="st24" d="M208.1,55.4l-0.9,0.8c-0.1,0.1-0.1,0.3,0,0.4l4.8,5l-4.8,4.8c-0.1,0.1-0.1,0.3,0,0.4l0.9,0.9
	c0.1,0.1,0.3,0.1,0.4,0l5.9-5.8c0.1-0.1,0.1-0.3,0-0.4l-0.7-0.7l-5.1-5.3C208.4,55.3,208.2,55.3,208.1,55.4L208.1,55.4z"/>
<path class="st8" d="M217.8,237.9h-1.2c-0.3,0-0.5,0.2-0.5,0.5s0.2,0.5,0.5,0.5h1.2c0.3,0,0.5-0.2,0.5-0.5
	C218.3,238.2,218.1,237.9,217.8,237.9z M218.7,236.5h-3.1c-0.3,0-0.5,0.2-0.5,0.5s0.2,0.5,0.5,0.5h3.1c0.3,0,0.5-0.2,0.5-0.5
	S219,236.5,218.7,236.5z M222.1,225.7c-0.5-0.9-1.2-1.5-2.1-2.1c-0.9-0.5-1.8-0.8-2.9-0.8c-1.5,0-3,0.6-4,1.6s-1.7,2.5-1.7,4
	c0,0.7,0.2,1.4,0.5,2.1s0.8,1.6,1.4,2.6c0.1,0.2,0.3,0.6,0.5,1.1c0.2,0.6,0.5,1,0.6,1.3c0.1,0.1,0.2,0.2,0.4,0.2h4.6
	c0.2,0,0.3-0.1,0.4-0.2c0.1-0.2,0.3-0.6,0.5-1.1s0.3-0.9,0.5-1.1c0.6-1.1,1.1-2,1.4-2.8s0.5-1.5,0.5-2.2
	C222.8,227.5,222.6,226.6,222.1,225.7L222.1,225.7z M221.4,230.4c-0.3,0.7-0.7,1.6-1.3,2.6c-0.2,0.3-0.4,0.8-0.5,1.3
	c-0.1,0.2-0.1,0.4-0.2,0.6h-4c-0.1-0.2-0.2-0.5-0.4-0.9c-0.3-0.6-0.5-1.1-0.6-1.3c-0.6-1-1-1.8-1.3-2.4s-0.4-1.2-0.4-1.8
	c0-2.5,2.1-4.6,4.6-4.6c0.8,0,1.6,0.2,2.3,0.6s1.3,1,1.7,1.7s0.6,1.5,0.6,2.3C221.8,229.1,221.7,229.7,221.4,230.4L221.4,230.4z"/>
<path class="st8" d="M190.2,257.6h-8.9v13.9H194v-10L190.2,257.6z M190.2,259l2.5,2.5h-2.5V259z M193.1,270.5h-10.8v-11.9h6.9v3.9
	h3.8L193.1,270.5z M188.3,262.9h-5v-1h5V262.9z M183.2,264.9h8.9v1h-8.9V264.9z M183.2,267.8h8.9v1h-8.9V267.8z"/>
<path class="st8" d="M219.2,262.7l-2.8-1.3c-0.1-0.1-0.2,0-0.2,0.1l-2.7,5.7v0.1l0.6,2.5c0,0,0.1,0.1,0.1,0l2.3-1.2l0.1-0.1l2.6-5.7
	C219.3,262.9,219.3,262.8,219.2,262.7L219.2,262.7z M215.8,268.6l-0.1,0.1c0,0-0.6,0.3-0.9,0.4c-0.1,0.1-0.4,0-0.4-0.2
	c-0.1-0.3-0.2-1-0.2-1v-0.1c0-0.1,0-0.2,0.1-0.1l0.1,0.1l1.3,0.6c0,0,0.1,0,0.1,0.1C215.9,268.5,215.9,268.6,215.8,268.6
	L215.8,268.6z M218,267.3c-0.1,0.2-0.3,0.5-0.4,0.9c0,0.1-0.1,0.2-0.1,0.4v2.7c0,0.1-0.1,0.2-0.2,0.2h-11.5c-0.1,0-0.2-0.1-0.2-0.2
	v-12.7c0-0.1,0.1-0.2,0.2-0.2h11.5c0.1,0,0.2,0.1,0.2,0.2v2c0,0.1,0.1,0.2,0.1,0.2c0.1,0,0.3,0.1,0.4,0.1s0.1,0,0.1-0.2v-2.2
	c0-0.5-0.4-0.9-0.9-0.9h-11.5c-0.5,0-0.9,0.4-0.9,0.9v12.7c0,0.5,0.4,0.9,0.9,0.9h11.5c0.5,0,0.9-0.4,0.9-0.9v-3.9
	C218.1,267.2,218,267.2,218,267.3z M215,262.2v-0.3c0-0.1-0.1-0.2-0.2-0.2h-7.1c-0.1,0-0.2,0.1-0.2,0.2v0.3c0,0.1,0.1,0.2,0.2,0.2
	h7.1C214.9,262.4,215,262.3,215,262.2z M213.6,265.1v-0.3c0-0.1-0.1-0.2-0.2-0.2h-5.7c-0.1,0-0.2,0.1-0.2,0.2v0.3
	c0,0.1,0.1,0.2,0.2,0.2h5.7C213.5,265.2,213.6,265.2,213.6,265.1z M208.3,269.2c-0.1,0-0.1,0.1-0.1,0.1v0.4c0,0.1,0.1,0.1,0.1,0.1
	h4.9c0.1,0,0.1-0.1,0.1-0.1v-0.4c0-0.1-0.1-0.1-0.1-0.1H208.3z"/>
<path class="st25" d="M193.4,140.1l-5.2,5.6l-5.2-5.6c-0.2-0.2-0.5-0.2-0.7,0.1s-0.2,0.6,0,0.9l5.6,5.9c0.1,0.1,0.2,0.2,0.3,0.2
	s0.2-0.1,0.3-0.2l5.6-5.9c0.2-0.2,0.2-0.6,0-0.9C194,140,193.7,139.9,193.4,140.1L193.4,140.1z"/>
<polygon class="st26" points="10.8,291.6 10.8,306.8 16.3,303 47.9,303 47.9,291.6 "/>
<path class="st4" d="M14.6,301v-7.2h4.8v0.8h-3.9v2.2h3.4v0.8h-3.4v3.3L14.6,301L14.6,301z"/>
<path class="st4" d="M20.5,301v-7.2h3.2c0.6,0,1.1,0.1,1.5,0.2c0.3,0.1,0.6,0.4,0.8,0.7s0.3,0.7,0.3,1.1c0,0.5-0.2,0.9-0.5,1.3
	c-0.3,0.3-0.8,0.6-1.5,0.7c0.2,0.1,0.4,0.2,0.6,0.4c0.3,0.3,0.5,0.6,0.8,0.9l1.2,1.9h-1.2l-0.9-1.5c-0.3-0.4-0.5-0.8-0.7-1
	s-0.3-0.4-0.5-0.5c-0.1-0.1-0.3-0.1-0.4-0.2h-1.6v3.2C21.6,301,20.5,301,20.5,301z M21.5,297h2c0.4,0,0.8,0,1-0.1s0.4-0.2,0.6-0.4
	s0.2-0.4,0.2-0.6c0-0.3-0.1-0.6-0.4-0.8c-0.2-0.2-0.6-0.3-1.2-0.3h-2.3L21.5,297L21.5,297z"/>
<path class="st4" d="M27.7,301v-7.2h5.2v0.8h-4.2v2.2h4v0.8h-4v2.4H33v0.8L27.7,301L27.7,301z"/>
<path class="st4" d="M34.2,301v-7.2h5.2v0.8h-4.2v2.2h4v0.8h-4v2.4h4.4v0.8L34.2,301L34.2,301z"/>
<path class="st4" d="M65.1,298c-0.5,0-1,0.4-1,0.9v4c0,0.5,0.4,0.9,0.9,0.9s0.9-0.4,0.9-0.9v-4C66,298.4,65.6,298,65.1,298z
	 M66.4,304.4c0,0.5,0.4,0.8,0.8,0.8h0.9v2.1c0,0.5,0.4,0.9,0.9,0.9s0.9-0.4,0.9-0.9v-2.1h1.3v2.1c0,0.5,0.4,0.9,0.9,0.9
	s0.9-0.4,0.9-0.9v-2.1h0.9c0.5,0,0.8-0.4,0.8-0.8v-6.3h-8.5C66.4,298.1,66.4,304.4,66.4,304.4L66.4,304.4z M72.8,294.4l0.7-1.1v-0.2
	h-0.2l-0.7,1.1c-0.6-0.2-1.2-0.4-1.8-0.4c-0.7,0-1.3,0.1-1.8,0.4l-0.7-1.1c0-0.1-0.1-0.1-0.2,0c-0.1,0-0.1,0.1,0,0.2l0.7,1.1
	c-1.3,0.6-2.2,1.8-2.2,3.2v0.2h8.5v-0.2C74.9,296.2,74.1,295,72.8,294.4z M68.7,296.3c-0.2,0-0.4-0.2-0.4-0.4s0.2-0.4,0.4-0.4
	s0.4,0.2,0.4,0.4S68.9,296.3,68.7,296.3z M72.6,296.3c-0.2,0-0.4-0.2-0.4-0.4s0.2-0.4,0.4-0.4s0.4,0.2,0.4,0.4
	C73,296.1,72.9,296.3,72.6,296.3z M76.3,298c-0.5,0-1,0.4-1,0.9v4c0,0.5,0.4,0.9,0.9,0.9s0.9-0.4,0.9-0.9v-4
	C77.2,298.4,76.8,298,76.3,298z"/>
<path class="st4" d="M100.9,300.2c0-2.1,1.6-3,1.7-3.1c-0.9-1.4-2.4-1.6-2.9-1.6c-1.2-0.1-2.4,0.7-3,0.7s-1.6-0.7-2.6-0.7
	c-1.3,0-2.6,0.8-3.3,2c-1.4,2.5-0.4,6.2,1,8.2c0.7,1,1.5,2.1,2.5,2.1s1.4-0.7,2.6-0.7s1.5,0.7,2.6,0.6c1.1,0,1.8-1,2.4-2
	c0.8-1.1,1.1-2.3,1.1-2.3S100.9,302.6,100.9,300.2z M98.9,294.1c0.5-0.7,0.9-1.6,0.8-2.6c-0.8,0-1.8,0.5-2.3,1.2
	c-0.5,0.6-1,1.6-0.8,2.5C97.5,295.3,98.4,294.8,98.9,294.1z"/>
<path class="st27" d="M127.7,290.8c-5.5,0-10,4.5-10,10s4.5,10,10,10s10-4.5,10-10S133.2,290.8,127.7,290.8z M127.7,310.2
	c-5.2,0-9.3-4.2-9.3-9.3c0-5.2,4.2-9.3,9.3-9.3c5.2,0,9.3,4.2,9.3,9.3S132.8,310.2,127.7,310.2z"/>
<path class="st28" d="M127.7,305.1c0.4,0,0.7-0.4,0.7-0.7v-9.8c0-0.4-0.4-0.7-0.7-0.7c-0.4,0-0.7,0.4-0.7,0.7v9.8
	C127,304.9,127.2,305.1,127.7,305.1z M127.7,306c-0.5,0-0.8,0.4-0.8,0.8c0,0.5,0.4,0.8,0.8,0.8c0.5,0,0.8-0.4,0.8-0.8
	S128.1,306,127.7,306z"/>
<path id="LinkedIn" class="st4" d="M165.6,303.7v4.6H163V304c0-1.1-0.4-1.8-1.3-1.8c-0.7,0-1.2,0.5-1.4,1c-0.1,0.2-0.1,0.4-0.1,0.6
	v4.4h-2.6v-7.9h2.6v1.1c0.4-0.5,1-1.3,2.4-1.3C164.3,300.1,165.6,301.3,165.6,303.7L165.6,303.7z M154.7,296.5
	c-0.9,0-1.5,0.6-1.5,1.4s0.6,1.4,1.5,1.4s1.5-0.6,1.5-1.4S155.6,296.5,154.7,296.5z M153.4,308.2h2.6v-7.9h-2.6V308.2z"/>
<path class="st4" d="M217.9,293.5H210c-0.9,0-1.7,0.8-1.7,1.7v14.6c0,0.9,0.8,1.7,1.7,1.7h7.9c0.9,0,1.7-0.8,1.7-1.7v-14.6
	C219.6,294.2,218.9,293.5,217.9,293.5z M211.8,294.3h4.5v0.6h-4.5V294.3z M214,310.4c-0.6,0-1.1-0.5-1.1-1.1s0.5-1.1,1.1-1.1
	s1.1,0.5,1.1,1.1S214.6,310.4,214,310.4z M218.5,307h-9v-11.3h9V307z"/>
<path class="st4" d="M189.7,295.5v2.5h-1.5c-0.6,0-0.9,0.1-1.1,0.3s-0.3,0.6-0.3,1v1.8h2.8l-0.4,2.9h-2.5v7.3h-3V304h-2.5v-2.9h2.5
	V299c0-1.2,0.3-2.1,1-2.8s1.6-1,2.7-1C188.4,295.4,189.1,295.5,189.7,295.5L189.7,295.5z"/>
<path class="st29" d="M12.4,327.9c-0.1,2.8,1.9,5.4,4.5,6.3c2.5,0.8,5.5,0.2,7.2-1.9c1.2-1.5,1.5-3.5,1.3-5.3H19v2.3h3.8
	c-0.3,1.1-1.1,2.1-2.2,2.5c-2.1,0.9-4.9-0.3-5.6-2.5c-0.8-2.1,0.5-4.7,2.7-5.4c1.4-0.5,2.8,0.1,3.9,0.8l1.7-1.7
	c-1.3-1.1-3-1.8-4.8-1.6C15.3,321.3,12.3,324.4,12.4,327.9L12.4,327.9z"/>
<path class="st29" d="M29.6,325v1.9h-1.9v1.9h1.9v1.9h1.9v-1.9h1.9v-1.9h-1.9V325C31.5,325,29.6,325,29.6,325z"/>
<path class="st4" d="M12.4,327.9c-0.1-3.4,2.9-6.6,6.3-6.6c1.8-0.1,3.5,0.5,4.8,1.6c-0.5,0.6-1.1,1.2-1.7,1.7
	c-1.2-0.7-2.6-1.2-3.9-0.8c-2.2,0.6-3.5,3.2-2.7,5.4c0.7,2.2,3.4,3.5,5.6,2.5c1.1-0.4,1.8-1.4,2.2-2.5h-3.8v-2.3h6.4
	c0.1,1.9-0.1,3.8-1.3,5.3c-1.6,2.1-4.7,2.7-7.2,1.9C14.3,333.3,12.4,330.6,12.4,327.9z"/>
<path class="st4" d="M29.6,325h1.9v1.9h1.9v1.9h-1.9v1.9h-1.9v-1.9h-1.9v-1.9h1.9C29.6,326.9,29.6,325,29.6,325z"/>
<g id="PLAY_1_">
	<g>
		<g>
			<defs>
				<path id="SVGID_1_" d="M68,328.3l-4.8-2.8c0,0-8.8-5.1-9.3-5.4s-1-0.1-1,0.5v10.8v11.1c0,0,0.4,0.7,0.8,0.4
					c0.4-0.3,9.5-5.5,9.5-5.5l4.8-2.8c0,0,4.1-2.4,4.6-2.7s0.5-0.7,0-1C72.2,330.8,68,328.3,68,328.3z"/>
			</defs>
			<clipPath id="SVGID_2_">
				<use xlink:href="#SVGID_1_"  style="overflow:visible;"/>
			</clipPath>
			
				<linearGradient id="SVGID_3_" gradientUnits="userSpaceOnUse" x1="144.8" y1="4740.3003" x2="144.8" y2="4764" gradientTransform="matrix(1 0 0 1 -86 -4420.6001)">
				<stop  offset="0" style="stop-color:#257DB0"/>
				<stop  offset="0.208" style="stop-color:#3C90B3"/>
				<stop  offset="0.7416" style="stop-color:#73BDB9"/>
				<stop  offset="1" style="stop-color:#89CEBC"/>
			</linearGradient>
			<polygon class="st30" points="52.8,319.7 52.8,331.5 52.8,343.4 64.8,331.5 			"/>
		</g>
	</g>
	<g>
		<g>
			<defs>
				<path id="SVGID_4_" d="M68,328.3l-4.8-2.8c0,0-8.8-5.1-9.3-5.4s-1-0.1-1,0.5v10.8v11.1c0,0,0.4,0.7,0.8,0.4
					c0.4-0.3,9.5-5.5,9.5-5.5l4.8-2.8c0,0,4.1-2.4,4.6-2.7s0.5-0.7,0-1C72.2,330.8,68,328.3,68,328.3z"/>
			</defs>
			<clipPath id="SVGID_5_">
				<use xlink:href="#SVGID_4_"  style="overflow:visible;"/>
			</clipPath>
			
				<linearGradient id="SVGID_6_" gradientUnits="userSpaceOnUse" x1="138.8" y1="4746.1499" x2="153.97" y2="4746.1499" gradientTransform="matrix(1 0 0 1 -86 -4420.6001)">
				<stop  offset="0" style="stop-color:#51BFAC"/>
				<stop  offset="1" style="stop-color:#DEE899"/>
			</linearGradient>
			<polygon class="st31" points="68,328.3 63.1,325.5 52.8,319.6 52.8,319.7 64.8,331.5 			"/>
		</g>
	</g>
	<g>
		<g>
			<defs>
				<path id="SVGID_7_" d="M68,328.3l-4.8-2.8c0,0-8.8-5.1-9.3-5.4s-1-0.1-1,0.5v10.8v11.1c0,0,0.4,0.7,0.8,0.4
					c0.4-0.3,9.5-5.5,9.5-5.5l4.8-2.8c0,0,4.1-2.4,4.6-2.7s0.5-0.7,0-1C72.2,330.8,68,328.3,68,328.3z"/>
			</defs>
			<clipPath id="SVGID_8_">
				<use xlink:href="#SVGID_7_"  style="overflow:visible;"/>
			</clipPath>
			
				<linearGradient id="SVGID_9_" gradientUnits="userSpaceOnUse" x1="146.4" y1="4752.1001" x2="146.4" y2="4764.1001" gradientTransform="matrix(1 0 0 1 -86 -4420.6001)">
				<stop  offset="0" style="stop-color:#EB403D"/>
				<stop  offset="0.1937" style="stop-color:#D64252"/>
				<stop  offset="0.7369" style="stop-color:#9F4887"/>
				<stop  offset="1" style="stop-color:#894A9C"/>
			</linearGradient>
			<polygon class="st32" points="52.8,343.4 52.8,343.5 63.1,337.5 68,334.7 64.8,331.5 			"/>
		</g>
	</g>
	<g>
		<g>
			<defs>
				<path id="SVGID_10_" d="M68,328.3l-4.8-2.8c0,0-8.8-5.1-9.3-5.4s-1-0.1-1,0.5v10.8v11.1c0,0,0.4,0.7,0.8,0.4
					c0.4-0.3,9.5-5.5,9.5-5.5l4.8-2.8c0,0,4.1-2.4,4.6-2.7s0.5-0.7,0-1C72.2,330.8,68,328.3,68,328.3z"/>
			</defs>
			<clipPath id="SVGID_11_">
				<use xlink:href="#SVGID_10_"  style="overflow:visible;"/>
			</clipPath>
			
				<linearGradient id="SVGID_12_" gradientUnits="userSpaceOnUse" x1="155.15" y1="4748.8999" x2="155.15" y2="4755.3003" gradientTransform="matrix(1 0 0 1 -86 -4420.6001)">
				<stop  offset="0" style="stop-color:#F48779"/>
				<stop  offset="0.6121" style="stop-color:#FAB076"/>
				<stop  offset="1" style="stop-color:#FDC674"/>
			</linearGradient>
			<polygon class="st33" points="68,328.3 64.8,331.5 68,334.7 73.5,331.5 			"/>
		</g>
	</g>
</g>
<path class="st34" d="M102,321.2c0.9-1,1.4-2.5,1.3-3.9c-1.2,0-2.7,0.8-3.6,1.9c-0.8,0.9-1.5,2.4-1.3,3.8
	C99.7,323.1,101.1,322.3,102,321.2z M105.1,330.4c0-3.1,2.5-4.6,2.7-4.7c-1.4-2.1-3.7-2.4-4.5-2.4c-1.9-0.2-3.7,1.1-4.7,1.1
	s-2.5-1.1-4.1-1.1c-2.1,0-4,1.2-5.1,3.1c-2.2,3.8-0.6,9.4,1.6,12.4c1,1.5,2.3,3.2,3.9,3.1s2.2-1,4-1c1.9,0,2.4,1,4.1,1
	s2.7-1.5,3.8-3c1.2-1.7,1.7-3.4,1.7-3.5C108.3,335.4,105.1,334.1,105.1,330.4z"/>
<g>
	<g>
		<defs>
			<rect id="SVGID_13_" x="117.9" y="322.6" width="22.3" height="22.3"/>
		</defs>
		<clipPath id="SVGID_14_">
			<use xlink:href="#SVGID_13_"  style="overflow:visible;"/>
		</clipPath>
		<path class="st35" d="M138.6,341.2l-0.5,0.5c-0.4,0.3-0.7,0.7-1.1,1.1c-0.5,0.6-1.2,0.9-2.2,0.8c-1.2-0.1-2.5-0.4-4-1.2
			c-2.9-1.4-5.4-3.4-7.4-5.8c-1.7-2-2.9-4-3.6-6c-0.5-1.3-0.7-2.3-0.6-3.2c0-0.6,0.3-1.1,0.7-1.5s0.7-0.7,1-1.1l0.7-0.7
			c0,0,0.5-0.4,0.8-0.4s0.6,0.2,0.8,0.4l1,1l0.4,0.4l0.4,0.4l0.9,0.9c0.6,0.6,0.6,1.1,0,1.6l-0.3,0.3c-0.4,0.5-0.9,0.9-1.4,1.4
			c-0.2,0.2-0.5,0.6-0.2,1.1c0.4,0.9,0.9,1.7,1.6,2.6c1.4,1.7,2.9,3.1,4.5,4.1c0.2,0.2,0.5,0.3,0.7,0.4c0.1,0.1,0.3,0.1,0.4,0.2
			c0.2,0.1,0.3,0.1,0.5,0.1c0.3,0,0.5-0.1,0.7-0.3l1.6-1.6l0.1-0.1c0.2-0.2,0.5-0.4,0.8-0.4s0.6,0.2,0.8,0.4l2.8,2.8
			C139.1,340.1,139.1,340.7,138.6,341.2L138.6,341.2z M139.5,338.7l-2.8-2.8c-0.5-0.5-1.1-0.7-1.7-0.7s-1.2,0.3-1.7,0.7l-0.1,0.1
			l-1.5,1.5c-0.1,0-0.2-0.1-0.3-0.2l-0.6-0.3c-1.5-0.9-2.8-2.2-4.2-3.8c-0.6-0.8-1.1-1.5-1.4-2.2l1.3-1.3l0.3-0.3c1-1,1-2.4,0-3.4
			l-0.9-0.9l-0.4-0.4l-0.4-0.4l-1-1c-0.5-0.5-1.1-0.7-1.7-0.7s-1.2,0.3-1.7,0.7L120,324l-1,1c-0.6,0.6-1,1.4-1.1,2.3
			c-0.1,1.4,0.3,2.7,0.7,3.7c0.8,2.2,2.1,4.3,3.8,6.4c2.2,2.6,4.8,4.7,7.9,6.1c1.7,0.8,3.1,1.2,4.5,1.3h0.3c1.2,0,2.1-0.4,2.9-1.2
			c0.3-0.4,0.6-0.7,1-1l0.5-0.5C140.5,341.1,140.5,339.8,139.5,338.7L139.5,338.7z"/>
	</g>
</g>
<g>
	<g>
		<defs>
			<rect id="SVGID_15_" x="147.7" y="323.3" width="26.6" height="23.1"/>
		</defs>
		<clipPath id="SVGID_16_">
			<use xlink:href="#SVGID_15_"  style="overflow:visible;"/>
		</clipPath>
		<path class="st36" d="M171.4,330.2c0.3,0,0.6,0.3,0.6,0.6s-0.3,0.6-0.6,0.6s-0.6-0.3-0.6-0.6C170.8,330.5,171.1,330.2,171.4,330.2
			z M172.9,331l-1.7,1.7l-5.8-5.8c-0.1-0.1-0.2-0.3-0.2-0.4c0-0.2,0.1-0.3,0.2-0.4l1.3-1.3c0.1-0.1,0.3-0.2,0.4-0.2
			c0.2,0,0.3,0.1,0.4,0.2l5.4,5.4c0.1,0.1,0.2,0.3,0.2,0.4S173,330.9,172.9,331L172.9,331z M167.7,336.2l-6.7-6.7
			c-0.1-0.1-0.2-0.2-0.4-0.2l-3.4-0.3h-0.1c-0.3,0-0.5,0.2-0.6,0.5l-0.3,1.4c-0.2,0.9-1,1.4-1.9,1.2c-0.4-0.1-0.8-0.3-1-0.7
			s-0.3-0.8-0.2-1.2l0.3-1.4c0.4-2,2.4-3.3,4.4-2.9l5.9,1l0.7,0.7l5.8,5.8L167.7,336.2L167.7,336.2z M151.1,338
			c-0.2-0.2-0.2-0.4,0-0.6l0.9-0.9l0.9,0.9l-0.9,0.9c-0.2,0.2-0.4,0.2-0.6,0L151.1,338L151.1,338z M152.9,339.8
			c-0.2-0.2-0.2-0.4,0-0.6l0.9-0.9l0.9,0.9l-0.9,0.9c-0.2,0.2-0.4,0.2-0.6,0L152.9,339.8L152.9,339.8z M154.7,341.6
			c-0.1-0.1-0.1-0.2-0.1-0.3s0-0.2,0.1-0.3l0.9-0.9l0.9,0.9l-0.9,0.9c-0.2,0.2-0.4,0.2-0.6,0L154.7,341.6L154.7,341.6z M157.4,343.7
			c-0.2,0.2-0.4,0.2-0.6,0l-0.3-0.3c-0.2-0.2-0.2-0.4,0-0.6l0.9-0.9l0.9,0.9L157.4,343.7L157.4,343.7z M173.8,329.3l-5.4-5.4
			c-0.3-0.3-0.8-0.5-1.3-0.5s-0.9,0.2-1.3,0.5l-1.3,1.3c-0.2,0.2-0.3,0.4-0.4,0.7l-5.9-1.1c-2.7-0.5-5.3,1.2-5.8,3.9L152,330
			c-0.3,1.5,0.7,3,2.2,3.3s3-0.7,3.3-2.2l0.2-0.8l2.7,0.2l7,7l1.3,1.3c0.3,0.3,0.3,0.7,0,0.9c-0.3,0.3-0.7,0.3-0.9,0l-3.4-3.4
			c-0.2-0.2-0.6-0.2-0.9,0s-0.2,0.6,0,0.9l3.4,3.4c0.1,0.1,0.2,0.3,0.2,0.5s-0.1,0.3-0.2,0.5c-0.3,0.3-0.7,0.3-0.9,0l-3.4-3.4
			c-0.2-0.2-0.6-0.2-0.9,0c-0.2,0.2-0.2,0.6,0,0.9l3.4,3.4c0.3,0.3,0.3,0.7,0,0.9c-0.1,0.1-0.3,0.2-0.5,0.2s-0.3-0.1-0.5-0.2
			l-3.4-3.4c-0.2-0.2-0.6-0.2-0.9,0c-0.2,0.2-0.2,0.6,0,0.9l3.4,3.4c0.3,0.3,0.3,0.7,0,0.9c-0.3,0.3-0.7,0.3-0.9,0l-12-12l-1.6-1.6
			c-0.2-0.2-0.6-0.2-0.9,0c-0.2,0.2-0.2,0.6,0,0.9l1.6,1.6l1.7,1.7l-0.9,0.9c-0.3,0.3-0.5,0.7-0.5,1.2c0,0.4,0.2,0.9,0.5,1.2
			l0.3,0.3c0.3,0.3,0.6,0.4,1,0.5c0,0.4,0.2,0.7,0.5,1l0.3,0.3c0.3,0.3,0.6,0.4,1,0.5c0,0.4,0.2,0.7,0.5,1l0.3,0.3
			c0.3,0.3,0.6,0.4,1,0.5c0,0.4,0.2,0.7,0.5,1l0.3,0.3c0.3,0.3,0.7,0.5,1.2,0.5s0.8-0.2,1.2-0.5l0.9-0.9l2.3,2.3
			c0.4,0.4,0.8,0.5,1.3,0.5s1-0.2,1.3-0.5s0.5-0.8,0.5-1.2c0.5,0,0.9-0.2,1.2-0.5s0.5-0.8,0.5-1.2c0.5,0,0.9-0.2,1.2-0.5
			s0.5-0.8,0.5-1.2c0.5,0,0.9-0.2,1.2-0.5c0.7-0.7,0.7-1.9,0-2.6l-0.8-0.8l3.1-3.1l2.1-2.1C174.5,331.1,174.5,330,173.8,329.3
			L173.8,329.3z"/>
	</g>
</g>
<path class="st37" d="M195.6,334.5c-1.9,0-3.4-1.5-3.4-3.4s1.5-3.4,3.4-3.4s3.4,1.5,3.4,3.4S197.4,334.5,195.6,334.5z M200,331.1
	c0-2.4-2-4.4-4.4-4.4s-4.4,2-4.4,4.4s2,4.4,4.4,4.4C198,335.4,200,333.5,200,331.1z M194,337.2l-2.3,0.7l-0.5-2.4l-2.4-0.5l0.7-2.3
	l-1.8-1.6l1.8-1.6l-0.7-2.3l2.4-0.5l0.5-2.4l2.3,0.7l1.6-1.8l1.7,1.8l2.3-0.7l0.5,2.4l2.4,0.5l-0.7,2.3l1.8,1.6l-1.8,1.6l0.7,2.3
	l-2.4,0.5l-0.5,2.4l-2.3-0.7l-1.6,1.8L194,337.2z M202.3,342.2c-0.3,0-0.5,0.1-0.6,0.4l-0.6,1.6l-3.3-5.6l2.5,0.8l0.5-2.1l3.1,5.4
	L202.3,342.2L202.3,342.2z M188.9,342.2c0.2,0,0.4,0.1,0.5,0.4l0.6,1.6l3.3-5.6l-2.3,0.7l-0.5-2.3l-3.2,5.5L188.9,342.2L188.9,342.2
	z M205.4,343l-3.9-6.7l2.3-0.5l-0.9-2.8l2.2-1.9l-2.2-1.9l0.9-2.8l-2.8-0.6l-0.6-2.8l-2.8,0.9l-2-2.1l-2,2.1l-2.8-0.9l-0.6,2.8
	l-2.8,0.6l0.9,2.8l-2.2,2l2.2,1.9l-0.9,2.8l2.3,0.5l-3.9,6.7c-0.3,0.5,0.1,0.8,0.5,0.8l2.3-0.5l0.8,2.2c0.1,0.4,0.7,0.5,0.9,0.1
	l3.9-6.6l1.4,1.6l1.4-1.5l3.8,6.6c0.3,0.4,0.9,0.3,1,0l0.8-2.2l2.3,0.5C205.3,343.9,205.7,343.5,205.4,343L205.4,343z"/>
<line class="st38" x1="226" y1="126.5" x2="208.8" y2="126.5"/>
<line class="st38" x1="225.6" y1="126.5" x2="221.2" y2="133"/>
<line class="st38" x1="225.9" y1="126.6" x2="220.5" y2="120.9"/>
<path class="st39" d="M217,331c0.1-0.2,0.4-0.2,0.5,0l0.9,0.7l0.2-0.2c0.1-0.2,0.3-0.2,0.5-0.2c0-0.1,0.1-0.1,0.1-0.2
	c0.1-0.1,0.8-0.9,1.5-1.5c1.3-1.1,3.4-0.8,3.6-0.7c0.1,0,0.5,0.1,0.7,0.2h0.5l-0.1,0.6l0.1,0.1l0.5-0.3c0,0,0.2,0.5,0.5,1.1
	c0.5,0.8,1.3,1.8,2.7,2.3c0.4,0.2,0.6,0.6,0.5,1s-0.5,0.6-0.9,0.5h-0.1c-1.4-0.5-2.4-1.5-3-2.2l-1.4,2.9c-0.1,0.1-0.1,0.2-0.2,0.3
	l1.3,2.4c0.1,0.2,0.1,0.4,0.1,0.7l-0.5,2.8c-0.1,0.5-0.6,0.9-1.2,0.8c-0.5-0.1-0.9-0.6-0.8-1.2l0.5-2.4l-1.3-2.4
	c-0.1,0-0.2-0.1-0.3-0.1l-2,2.4c-0.1,0.2-0.3,0.3-0.5,0.3l-2.2,0.5c-0.2,0-0.3,0.1-0.5,0c-0.1,0-0.1,0-0.2-0.1
	c-0.5-0.2-0.8-0.8-0.6-1.3c0.1-0.3,0.4-0.5,0.7-0.6c0.2,0,1-0.2,2-0.5l2.1-2.6c0-0.2,0.1-0.4,0.2-0.6l1.6-3.4
	c-0.4,0-0.9,0.1-1.2,0.4c-0.6,0.5-1.4,1.3-1.4,1.3c0,0.1-0.1,0.1-0.1,0.1c0.1,0.2,0,0.4-0.1,0.5l-0.2,0.2l0.9,0.7
	c0.2,0.1,0.2,0.4,0,0.5l-2,2.3c-0.1,0.2-0.4,0.2-0.5,0l-3.3-2.8c-0.2-0.1-0.2-0.4,0-0.5L217,331L217,331z"/>
<path class="st39" d="M227.2,329.1c-0.2,0.3-0.4,0.6-0.7,0.9c-0.2,0.2-0.5,0.3-0.8,0.4c0,0-0.4,0.1-0.8-0.1
	c-0.2-0.1-0.4-0.3-0.6-0.6c-0.1-0.3-0.2-0.6-0.2-0.9c0-0.4,0.1-0.7,0.3-1.1c0.1-0.3,0.3-0.6,0.5-0.8s0.4-0.3,0.7-0.3
	s0.6,0.1,0.9,0.2c0.3,0.1,0.6,0.3,0.8,0.6c0.2,0.2,0.2,0.5,0.2,0.8C227.5,328.6,227.3,328.9,227.2,329.1L227.2,329.1z"/>
<path class="st40" d="M141.1,51.2H133c-0.7,0-1.2,0.6-1.2,1.2v15.8c0,0.7,0.6,1.2,1.2,1.2h8.1c0.7,0,1.2-0.6,1.2-1.2V52.4
	C142.3,51.7,141.8,51.2,141.1,51.2z M135.8,52h2.6c0.1,0,0.1,0.1,0.1,0.2s-0.1,0.1-0.1,0.1h-2.6c-0.1,0-0.1-0.1-0.1-0.1
	C135.6,52.1,135.7,52,135.8,52z M137.1,68.8c-0.3,0-0.6-0.3-0.6-0.6s0.3-0.6,0.6-0.6s0.6,0.3,0.6,0.6S137.4,68.8,137.1,68.8z
	 M141.5,67.2h-8.9V53.1h8.9V67.2z"/>
<path class="st41" d="M133.7,91.8c-5.5,0-10,4.5-10,10s4.5,10,10,10s10-4.5,10-10S139.2,91.8,133.7,91.8z M133.7,111.2
	c-5.2,0-9.3-4.2-9.3-9.3c0-5.2,4.2-9.3,9.3-9.3c5.2,0,9.3,4.2,9.3,9.3S138.8,111.2,133.7,111.2z"/>
<path class="st4" d="M133.7,106.1c0.4,0,0.7-0.4,0.7-0.7v-9.8c0-0.4-0.4-0.7-0.7-0.7c-0.4,0-0.7,0.4-0.7,0.7v9.8
	C133,105.9,133.2,106.1,133.7,106.1z M133.7,107c-0.5,0-0.8,0.4-0.8,0.8c0,0.5,0.4,0.8,0.8,0.8c0.5,0,0.8-0.4,0.8-0.8
	S134.1,107,133.7,107z"/>
<path class="st42" d="M73.1,86.5c-0.3,0-0.4-0.3-0.4-0.5v-3.3h-1.4c-0.8,0-1.4-0.6-1.4-1.4V69.1c0-0.8,0.6-1.4,1.4-1.4h20.4
	c0.8,0,1.4,0.6,1.4,1.4v12.2c0,0.8-0.6,1.4-1.4,1.4H77.2l-3.8,3.6C73.5,86.3,73.3,86.5,73.1,86.5z M71.3,68.6
	c-0.3,0-0.5,0.2-0.5,0.5v12.2c0,0.3,0.2,0.5,0.5,0.5h1.9c0.3,0,0.5,0.2,0.5,0.5V85l3-3c0.2-0.2,0.2-0.2,0.3-0.2h14.6
	c0.3,0,0.5-0.2,0.5-0.5V69.1c0-0.3-0.2-0.5-0.5-0.5C91.6,68.6,71.3,68.6,71.3,68.6z"/>
<path class="st42" d="M78,76.1c-0.5,0-0.9-0.5-0.9-0.9s0.5-0.9,0.9-0.9s0.9,0.5,0.9,0.9S78.6,76.1,78,76.1z"/>
<path class="st42" d="M85.8,76.1c-0.5,0-0.9-0.5-0.9-0.9s0.5-0.9,0.9-0.9c0.5,0,0.9,0.5,0.9,0.9S86.3,76.1,85.8,76.1z"/>
<path class="st42" d="M81.9,76.1c-0.5,0-0.9-0.5-0.9-0.9s0.5-0.9,0.9-0.9c0.5,0,0.9,0.5,0.9,0.9S82.4,76.1,81.9,76.1z"/>
<path class="st43" d="M229.5,163.6c-0.9,0-2-0.2-3-0.7c-2.5-0.9-5.3-2.9-7.8-5.3c-2.5-2.5-4.3-5.2-5.3-7.8c-0.9-2.3-0.9-4.3,0-5
	l0.4-0.4c0.7-0.9,1.8-1.8,2.9-1.8c0.9,0,1.6,0.5,2.5,1.6c2.3,3,1.2,4.1,0,5.3l-0.2,0.2c-0.2,0.2-0.5,1.1,3,4.8c1.2,1.2,2.1,2,3,2.5
	c0.5,0.4,1.4,0.9,1.8,0.5l0.2-0.2c1.2-1.2,2.3-2.3,5.3,0c1.1,0.9,1.4,1.6,1.6,2.5c0,1.2-0.9,2.1-1.8,2.9c-0.2,0.2-0.4,0.2-0.4,0.4
	C230.9,163.4,230.2,163.6,229.5,163.6z M216.5,143.3c-0.9,0-1.6,0.7-2.3,1.4l-0.4,0.4c-0.7,0.7-0.5,2.3,0.2,4.3
	c0.9,2.5,2.7,5.2,5.2,7.5c2.3,2.5,5,4.3,7.5,5.2c2,0.7,3.7,0.9,4.3,0.2l0.4-0.4c0.7-0.7,1.6-1.4,1.4-2.3c0-0.5-0.5-1.2-1.2-2
	c-2.5-2-3.2-1.2-4.3-0.2l-0.2,0.2c-0.5,0.5-1.4,0.4-2.7-0.4c-0.9-0.5-2-1.4-3-2.7c-3-3-3.9-4.8-3-5.7l0.2-0.2
	c1.2-1.1,1.8-1.8-0.2-4.3C217.7,143.8,217,143.3,216.5,143.3z"/>
<path class="st43" d="M229.5,151.3c-0.4-0.2-0.4-0.4-0.4-0.5c0.5-1.1,0.2-2.3-0.7-3.2s-2.1-1.1-3.4-0.5c-0.2,0-0.4,0-0.5-0.2
	c0-0.2,0-0.4,0.2-0.5c1.4-0.7,3-0.4,4.1,0.7s1.4,2.7,0.9,3.9C229.9,151.1,229.7,151.3,229.5,151.3L229.5,151.3z"/>
<path class="st43" d="M232.7,152.6C232.7,152.6,232.5,152.6,232.7,152.6c-0.4-0.2-0.4-0.4-0.4-0.5c0.9-2.3,0.4-5-1.4-7
	c-1.8-1.8-4.6-2.3-7.1-1.2c-0.2,0-0.4,0-0.5-0.2c0-0.2,0-0.4,0.2-0.5c2.7-1.2,5.9-0.5,7.8,1.4c2,2,2.7,5,1.6,7.7
	C232.9,152.6,232.9,152.6,232.7,152.6L232.7,152.6z"/>
<path class="st44" d="M181.5,20c0-0.1-0.1-0.3-0.3-0.3h-2.3c-0.2,0-0.3,0.1-0.3,0.3v2.8h-1.8c-0.1,0-0.2,0.1-0.3,0.2
	c0,0.1,0,0.2,0.1,0.3l3.3,3c0.1,0.1,0.1,0.1,0.2,0.1s0.1,0,0.2-0.1l3.3-3c0.1-0.1,0.1-0.2,0.1-0.3s-0.2-0.2-0.3-0.2h-1.8L181.5,20
	L181.5,20z M182.6,23.3l-2.6,2.4l-2.6-2.4h1.4c0.2,0,0.3-0.1,0.3-0.3v-2.8h1.7V23c0,0.1,0.1,0.3,0.3,0.3H182.6L182.6,23.3z"/>
<path class="st44" d="M187.4,17.2l-4.6-4.3c-0.1-0.1-0.1-0.1-0.2-0.1h-9.1c-0.5,0-0.9,0.4-0.9,0.8v16c0,0.2,0.1,0.4,0.3,0.6
	s0.4,0.3,0.7,0.3h13c0.2,0,0.5-0.1,0.6-0.2c0.2-0.2,0.3-0.4,0.3-0.6V17.4C187.5,17.3,187.4,17.2,187.4,17.2z M182.4,13.4l4.2,3.8
	h-4.2V13.4z M186.9,29.7c0,0.1,0,0.1-0.1,0.2s-0.1,0.1-0.2,0.1h-13c-0.1,0-0.2,0-0.3-0.1s-0.1-0.1-0.1-0.2v-16
	c0-0.2,0.2-0.3,0.3-0.3h8.4v4.1c0,0.1,0,0.1,0.1,0.2s0.1,0.1,0.2,0.1h4.8L186.9,29.7L186.9,29.7z"/>
<path class="st45" d="M151.7,22.5c2.5,0,4.5-2.8,4.5-6.3s-2-6.3-4.5-6.3c-1.2,0-2.4,0.7-3.2,1.9s-1.3,2.7-1.3,4.4
	C147.2,19.7,149.2,22.5,151.7,22.5z M151.7,11.3c1.8,0,3.3,2.2,3.3,4.9s-1.5,4.9-3.3,4.9s-3.3-2.2-3.3-4.9S149.9,11.3,151.7,11.3z
	 M155.5,21.8c-0.3,0-0.6,0.3-0.6,0.7s0.3,0.7,0.6,0.7c2,0,3.7,1.9,3.7,4.3c0,0.3-0.2,0.5-0.5,0.5h-14c-0.3,0-0.5-0.2-0.5-0.5
	c0-2.3,1.7-4.3,3.7-4.3c0.3,0,0.6-0.3,0.6-0.7s-0.3-0.7-0.6-0.7c-2.7,0-4.9,2.5-4.9,5.6c0,1.1,0.7,1.9,1.7,1.9h13.9
	c0.9,0,1.7-0.9,1.7-1.9C160.3,24.3,158.1,21.8,155.5,21.8L155.5,21.8z"/>
<path class="st44" d="M159.3,21.7c0-0.3-0.2-0.5-0.5-0.5h-3.9c-0.3,0-0.5,0.2-0.5,0.5v4.7h-3.2c-0.2,0-0.4,0.1-0.5,0.3
	s0,0.4,0.1,0.5l5.6,5.2c0.1,0.1,0.2,0.1,0.4,0.1c0.1,0,0.3,0,0.4-0.1l5.6-5.2c0.1-0.1,0.2-0.3,0.1-0.5s-0.3-0.3-0.5-0.3h-3.2
	L159.3,21.7L159.3,21.7z M161.3,27.4l-4.4,4.1l-4.4-4.1h2.5c0.3,0,0.5-0.2,0.5-0.5v-4.7h2.9v4.7c0,0.3,0.2,0.5,0.5,0.5
	C158.9,27.4,161.3,27.4,161.3,27.4z"/>
<path class="st4" d="M124.8,169c-0.1-0.4-0.5-0.7-0.9-0.7H107c-0.4,0-0.7,0.3-0.9,0.7c-0.1,0.4-0.1,0.9,0.2,1.2l6.7,7.6v9.5
	c0,0.3,0.2,0.5,0.4,0.5s0.4-0.2,0.4-0.5v-9.7c0-0.1,0-0.2-0.1-0.3l-6.8-7.7c-0.1-0.1,0-0.1,0-0.2l0.1-0.1h16.9
	c0.1,0,0.1,0.1,0.1,0.1s0,0.1,0,0.2l-6.8,7.7c-0.1,0.1-0.1,0.2-0.1,0.3v6.9c0,0.3,0.2,0.5,0.4,0.5s0.4-0.2,0.4-0.5v-6.7l6.7-7.6
	C124.8,169.9,124.9,169.4,124.8,169C124.7,169,124.8,169,124.8,169L124.8,169z"/>
<path id="Forma_1" class="st4" d="M113.3,368.6c-1,0-1.9,0.5-2.6,1.2l-5.5-2.8c0.1-0.2,0.1-0.6,0.2-0.8c0-0.3-0.1-0.6-0.2-0.9
	l5.4-2.8c1,1.4,3,1.7,4.5,0.6c1.4-1.1,1.7-3,0.6-4.5c-1-1.4-3-1.7-4.5-0.6c-0.8,0.6-1.3,1.5-1.3,2.6c0,0.3,0.1,0.6,0.2,0.8l-5.5,2.8
	c-1.1-1.4-3.1-1.6-4.5-0.6c-1.4,1.1-1.6,3.1-0.6,4.5c1.1,1.4,3.1,1.6,4.5,0.6l0.6-0.6l5.4,2.8c-0.1,0.3-0.2,0.6-0.2,0.9
	c0,1.8,1.4,3.3,3.2,3.3s3.3-1.4,3.3-3.2C116.6,370.1,115.2,368.6,113.3,368.6C113.4,368.6,113.4,368.6,113.3,368.6z"/>
<path class="st46" d="M139.5,350.1h27.1c1.9,0,3.4,1.5,3.4,3.4V376c0,1.9-1.5,3.4-3.4,3.4h-27.1c-1.9,0-3.4-1.5-3.4-3.4v-22.6
	C136.1,351.6,137.6,350.1,139.5,350.1z"/>
<path class="st46" d="M141.7,378.3c0,0-1.1,4.5-3.4,5.6c0,0,10.2-1.1,12.4-5.6H141.7z"/>
<path class="st4" d="M153,363.5c1.2,0,2.3,1,2.3,2.3c0,1.2-1,2.3-2.3,2.3c-1.2,0-2.3-1-2.3-2.3S151.8,363.5,153,363.5z"/>
<path class="st4" d="M144,362.5c1.2,0,2.3,1,2.3,2.3c0,1.2-1,2.3-2.3,2.3c-1.2,0-2.3-1-2.3-2.3S142.7,362.5,144,362.5z"/>
<path class="st4" d="M162,362.5c1.2,0,2.3,1,2.3,2.3c0,1.2-1,2.3-2.3,2.3c-1.2,0-2.3-1-2.3-2.3C159.8,363.5,160.8,362.5,162,362.5z"
	/>
<path class="st47" d="M182.9,356.5c1.2,0.6,16.2,7.6,16.7,8.1c0.5,0.3,2.1,1.4,2.1,1.4l2.1-0.5c0,0,15.6-8.3,16.7-9
	c1.2-0.5,2.1-2.3,0.3-2.3H183C180.8,353.9,181.7,355.8,182.9,356.5z M220.7,359.9c-1.2,0.6-16.4,8.6-17.1,9
	c-0.6,0.5-1.4,0.5-2.1,0.5s-1.2,0-2.1-0.5c-0.6-0.5-15.9-8.3-17.1-9c-0.9-0.5-0.9,0-0.9,0.5v16.4c0,0.9,1.2,2.1,2.3,2.1h35.4
	c0.9,0,2.3-1.2,2.3-2.1v-16.4C221.6,359.9,221.6,359.4,220.7,359.9L220.7,359.9z"/>
<path id="Forma_1_copy" class="st48" d="M124.3,402.9c0-0.9-0.1-1.9-0.4-2.8c-0.2-0.7-0.6-1.4-1.1-2c-0.5-0.5-1-0.9-1.7-1.1
	c-0.7-0.3-1.4-0.4-2.1-0.4c-0.5,0-1.1,0.1-1.6,0.2c-0.4,0.1-0.8,0.3-1.2,0.6c-0.3,0.2-0.6,0.5-0.8,0.8s-0.4,0.5-0.6,0.7v-2h-4.6
	v13.8h4.6v-8.3c0,0,0.1-0.4,0.1-0.5c0.2-0.4,0.5-0.8,0.8-1.1c0.4-0.4,1-0.6,1.5-0.5c0.7-0.1,1.4,0.3,1.8,0.9
	c0.4,0.7,0.6,1.5,0.5,2.3v7.4h4.6C124.1,410.9,124.3,402.9,124.3,402.9z M105.4,395.1c0.7,0,1.4-0.2,1.9-0.7
	c0.5-0.4,0.7-1.1,0.7-1.7s-0.2-1.3-0.7-1.7c-0.5-0.5-1.2-0.7-1.9-0.7s-1.4,0.2-1.9,0.7c-0.5,0.4-0.7,1.1-0.7,1.7s0.2,1.2,0.7,1.7
	S104.7,395.2,105.4,395.1z M107.7,397h-4.6v13.8h4.6V397z M128.5,384.1c0.2,0,0.4,0.1,0.6,0.2s0.2,0.3,0.2,0.6v30.3
	c0,0.2-0.1,0.4-0.2,0.6c-0.2,0.1-0.4,0.2-0.6,0.2h-30c-0.2,0-0.4-0.1-0.6-0.2s-0.2-0.3-0.2-0.6v-30.3c0-0.2,0.1-0.4,0.2-0.6
	c0.2-0.1,0.4-0.2,0.6-0.2H128.5z"/>
<path class="st49" d="M150.6,417.3l2.3-8.3c-4.4-7.7-1.7-17.6,6-22c6.3-3.6,14.3-2.5,19.4,2.6c3,3,4.7,7.1,4.7,11.4
	c0,8.9-7.3,16.1-16.2,16.1c-2.7,0-5.4-0.7-7.7-2L150.6,417.3L150.6,417.3z"/>
<path class="st50" d="M162.6,393.9c-0.1-0.4-0.5-0.7-0.9-0.7h-0.8c-0.4,0-0.8,0.2-1.1,0.5c-1,0.9-1.5,2.2-1.5,3.5
	c0.1,1.6,0.7,3.1,1.7,4.3c0.2,0.3,2.9,4.6,7.1,6.3c3.5,1.4,4.3,1.1,5,1c1.2-0.2,2.2-0.9,2.8-2c0.3-0.6,0.4-1.3,0.2-2
	c-0.2-0.2-0.5-0.4-0.8-0.5c-0.4-0.2-2.5-1.2-2.9-1.4c-0.3-0.2-0.7-0.1-0.9,0.2c-0.3,0.4-1.1,1.4-1.3,1.6c-0.2,0.3-0.6,0.3-0.9,0.1
	c-1.2-0.5-2.4-1.2-3.4-2.1c-0.9-0.8-1.7-1.8-2.3-2.9c-0.2-0.3-0.1-0.7,0.2-0.8c0.2-0.2,0.4-0.5,0.6-0.7s0.3-0.4,0.4-0.7
	c0.1-0.2,0.1-0.5,0-0.7C163.8,396.8,163,394.7,162.6,393.9L162.6,393.9z"/>
<path class="st51" d="M75,449.6"/>
<path class="st51" d="M126.9,446.3"/>
<path class="st52" d="M41,477.3v-4.1c0.5-0.3,0.8-0.9,0.8-1.6v-4.2c0-2.1-1.7-3.8-3.8-3.8h-1c-2.1,0-3.8,1.7-3.8,3.8v4.2
	c0,0.7,0.3,1.2,0.8,1.6v4.1c0,0.1,0,0.1-0.1,0.2c-0.6,0.3-3.4,1.7-6,3.8c-0.5,0.4-0.7,1-0.7,1.6v2.9h8.9l0.9-4
	c-1.8-2.5,0.1-2.6,0.5-2.6c0.3,0,2.2,0.1,0.5,2.6l0.9,4h2.8v-0.3v-3.7c0-0.6,0.5-1.1,1.1-1.1h1.4c0.1,0,0.2,0,0.3,0.1v-0.6
	c0-0.2,0.1-0.4,0.2-0.6c-1.7-1.1-3.2-1.9-3.6-2.1C41,477.4,41,477.4,41,477.3L41,477.3z"/>
<path class="st53" d="M44.2,481.5h-1.4c-0.2,0-0.3,0.1-0.3,0.3v3.7c0,0.2,0.1,0.3,0.3,0.3h1.4c0.2,0,0.3-0.1,0.3-0.3v-3.7
	C44.5,481.6,44.3,481.5,44.2,481.5z"/>
<path class="st53" d="M47,479.8h-1.4c-0.2,0-0.3,0.1-0.3,0.3v5.3c0,0.2,0.1,0.3,0.3,0.3H47c0.2,0,0.3-0.1,0.3-0.3v-5.3
	C47.3,479.9,47.2,479.8,47,479.8z"/>
<path class="st53" d="M51.3,477.9l-2-3.1c0-0.1-0.1-0.1-0.2-0.1s-0.1,0-0.2,0.1l-2,3.1c-0.1,0.2,0,0.3,0.2,0.3h1v7.3
	c0,0.2,0.1,0.3,0.3,0.3h1.4c0.2,0,0.3-0.1,0.3-0.3v-7.2h1C51.2,478.2,51.4,478,51.3,477.9L51.3,477.9z"/>
<polygon class="st54" points="190.3,442.1 187.9,442.1 187.9,439.7 "/>
<path class="st55" d="M191.7,464.1h-20.3c-0.2,0-0.4-0.2-0.4-0.4v-25c0-0.2,0.2-0.4,0.4-0.4h16.1c0.1,0,0.1,0,0.2,0.1l3.9,3.9
	c0,0,0.1,0.1,0.1,0.2v20.8c0,0.7-0.9,0.6-0.9-0.1V443h-3.4c-0.2,0-0.4-0.2-0.4-0.4v-3.4h-15.1v24.1h19.9
	C191.9,463.4,191.9,464.2,191.7,464.1z"/>
<path class="st56" d="M175.3,456.5h1.8v3.6h-1.8V456.5z"/>
<path id="Rectangle_9_copy" class="st57" d="M178.2,454.1h1.8v5.9h-1.8V454.1z"/>
<path id="Rectangle_9_copy_2" class="st58" d="M181.2,452.3h1.8v7.7h-1.8V452.3z"/>
<path id="Rectangle_9_copy_3" class="st59" d="M184.2,449.9h1.8V460h-1.8V449.9z"/>
<path id="Rectangle_9_copy_4" class="st60" d="M174.1,442.2h10.1v1.8h-10.1V442.2z"/>
<path id="Rectangle_9_copy_5" class="st60" d="M174.1,445.2H186v1.8h-11.9V445.2z"/>
<path class="st61" d="M32.2,152.9l-5.6-5.6c1.4-1.7,2.2-3.9,2.2-6.3c0-5.4-4.4-9.9-9.9-9.9S9,135.5,9,141s4.4,9.9,9.9,9.9
	c2.4,0,4.6-0.8,6.3-2.2l5.6,5.6c0.4,0.4,1,0.4,1.4,0C32.6,153.9,32.6,153.2,32.2,152.9z M19,148.9c-4.4,0-7.9-3.5-7.9-7.9
	s3.5-7.9,7.9-7.9s7.9,3.6,7.9,7.9S23.3,148.9,19,148.9z"/>
<path class="st4" d="M177.2,114.2l-5.6-5.6c1.4-1.7,2.2-3.9,2.2-6.3c0-5.4-4.4-9.9-9.9-9.9s-9.9,4.4-9.9,9.9s4.4,9.9,9.9,9.9
	c2.4,0,4.6-0.8,6.3-2.2l5.6,5.6c0.4,0.4,1,0.4,1.4,0S177.6,114.6,177.2,114.2z M164,110.3c-4.4,0-7.9-3.5-7.9-7.9s3.5-7.9,7.9-7.9
	s7.9,3.6,7.9,7.9S168.3,110.3,164,110.3z"/>
<path id="Forma_1_1_" class="st61" d="M69.4,148.6c-2.5-1.1-2.6-6.1-2.6-6.2v-3.3c0-3.1-1.8-5.8-4.6-7.1c0-1.6-1.2-2.9-2.8-3
	c-1.6,0-2.9,1.2-3,2.8v0.2c-2.8,1.2-4.6,4-4.6,7.1v3.3c0,0.1-0.1,5.1-2.6,6.2c-0.3,0.1-0.4,0.4-0.4,0.8c0.1,0.3,0.3,0.5,0.6,0.5h6.3
	c0.1,0.7,0.5,1.4,1,2c1.2,1.4,3.4,1.5,4.8,0.3l0.3-0.3c0.5-0.5,0.8-1.2,1-2h6.3c0.3,0,0.6-0.2,0.6-0.5
	C69.8,149,69.7,148.7,69.4,148.6z M66.1,146.2c0.2,0.8,0.6,1.6,1.1,2.3H51.5c0.5-0.7,0.9-1.5,1.1-2.3H66.1z M59.4,130.4
	c0.7,0,1.3,0.5,1.5,1.2c-1-0.2-2-0.2-3,0C58,130.8,58.7,130.4,59.4,130.4z M53.2,142.4v-3.3c-0.1-3.4,2.6-6.2,6-6.3s6.2,2.6,6.3,6
	v0.4v3.3c0,0.8,0.1,1.7,0.3,2.5H53C53.1,144,53.2,143.2,53.2,142.4L53.2,142.4z M59.4,151.6c-1,0-1.9-0.7-2.2-1.7h4.3
	C61.3,150.8,60.4,151.5,59.4,151.6z"/>
<path id="Forma_1_2_" class="st4" d="M31.4,433.6c-2.5-1.1-2.6-6.1-2.6-6.2v-3.3c0-3.1-1.8-5.8-4.6-7.1c0-1.6-1.2-2.9-2.8-3
	c-1.6,0-2.9,1.2-3,2.8v0.2c-2.8,1.2-4.6,4-4.6,7.1v3.3c0,0.1-0.1,5.1-2.6,6.2c-0.3,0.1-0.4,0.4-0.4,0.8c0.1,0.3,0.3,0.5,0.6,0.5h6.3
	c0.1,0.7,0.5,1.4,1,2c1.2,1.4,3.4,1.5,4.8,0.3l0.3-0.3c0.5-0.5,0.8-1.2,1-2h6.3c0.3,0,0.6-0.2,0.6-0.5
	C31.8,434,31.7,433.7,31.4,433.6z M28.1,431.2c0.2,0.8,0.6,1.6,1.1,2.3H13.5c0.5-0.7,0.9-1.5,1.1-2.3H28.1z M21.4,415.4
	c0.7,0,1.3,0.5,1.5,1.2c-1-0.2-2-0.2-3,0C20,415.8,20.7,415.4,21.4,415.4z M15.2,427.4v-3.3c-0.1-3.4,2.6-6.2,6-6.3s6.2,2.6,6.3,6
	v0.4v3.3c0,0.8,0.1,1.7,0.3,2.5H15C15.1,429,15.2,428.2,15.2,427.4z M21.4,436.6c-1,0-1.9-0.7-2.2-1.7h4.3
	C23.3,435.8,22.4,436.5,21.4,436.6z"/>
<path id="profile" class="st61" d="M56.6,426.6c3.3,0,6-3.3,6-7.3s-2.7-7.3-6-7.3c-1.7,0-3.3,0.8-4.3,2.2c-1.1,1.5-1.7,3.3-1.7,5.1
	C50.6,423.3,53.3,426.6,56.6,426.6L56.6,426.6z M56.6,413.6c2.4,0,4.4,2.6,4.4,5.7s-2,5.7-4.4,5.7s-4.4-2.6-4.4-5.7
	S54.2,413.6,56.6,413.6z M61.6,425.8c-0.4,0-0.8,0.4-0.8,0.8s0.4,0.8,0.8,0.8c2.7,0,5,2.2,5,5c0,0.4-0.3,0.6-0.6,0.6H47.2
	c-0.4,0-0.6-0.3-0.6-0.6c0-2.7,2.2-5,5-5c0.4,0,0.8-0.4,0.8-0.8s-0.4-0.8-0.8-0.8c-3.6,0-6.6,2.9-6.6,6.6c0,1.2,1,2.2,2.2,2.2H66
	c1.2,0,2.2-1,2.2-2.2C68.2,428.7,65.3,425.8,61.6,425.8z"/>
<path id="profile_1_" class="st4" d="M89.6,436.6c3.3,0,6-3.3,6-7.3s-2.7-7.3-6-7.3c-1.7,0-3.3,0.8-4.3,2.2
	c-1.1,1.5-1.7,3.3-1.7,5.1C83.6,433.3,86.3,436.6,89.6,436.6L89.6,436.6z M89.6,423.6c2.4,0,4.4,2.6,4.4,5.7s-2,5.7-4.4,5.7
	s-4.4-2.6-4.4-5.7S87.2,423.6,89.6,423.6z M94.6,435.8c-0.4,0-0.8,0.4-0.8,0.8s0.4,0.8,0.8,0.8c2.7,0,5,2.2,5,5
	c0,0.4-0.3,0.6-0.6,0.6H80.2c-0.4,0-0.6-0.3-0.6-0.6c0-2.7,2.2-5,5-5c0.4,0,0.8-0.4,0.8-0.8s-0.4-0.8-0.8-0.8
	c-3.6,0-6.6,2.9-6.6,6.6c0,1.2,1,2.2,2.2,2.2H99c1.2,0,2.2-1,2.2-2.2C101.2,438.7,98.3,435.8,94.6,435.8z"/>
<path class="st55" d="M218.5,414.4c-0.1,0-0.3-0.1-0.4-0.2l-3.3-3.3c-0.2-0.2-0.2-0.6,0-0.8s0.6-0.2,0.8,0l2.9,2.9l8.2-8.2
	c0.2-0.2,0.6-0.2,0.8,0s0.2,0.6,0,0.8l-8.6,8.6C218.8,414.3,218.6,414.4,218.5,414.4z"/>
<path id="Forma_1_3_" class="st61" d="M70.4,486h-3.6c-0.4,0-0.8-0.4-0.8-0.8v-22.4c0-0.5,0.4-0.8,0.8-0.8h16.1
	c0.2,0,0.4,0.1,0.6,0.3l6.2,6.2c0.2,0.1,0.3,0.4,0.3,0.6v9c-0.5,0.1-1.7,0.1-1.6-0.6V470c-1.3-1.6-5.7-5.8-5.7-5.8l-0.6-0.4H67.6
	v20.7h2.6C70.3,484.7,70.3,485.7,70.4,486L70.4,486z"/>
<rect x="72" y="471" class="st61" width="13" height="3"/>
<g class="st62">
	<path class="st63" d="M74,480.1h1v4c0,0.5-0.2,1-0.5,1.3s-0.8,0.5-1.3,0.5c-0.6,0-1.1-0.2-1.4-0.5s-0.5-0.7-0.5-1.3h1
		c0,0.3,0.1,0.5,0.2,0.7s0.4,0.2,0.7,0.2c0.3,0,0.5-0.1,0.6-0.3c0.2-0.2,0.2-0.4,0.2-0.7L74,480.1L74,480.1z"/>
	<path class="st63" d="M80.6,483.1c0,0.6-0.1,1-0.3,1.5c-0.2,0.4-0.5,0.7-0.8,1c-0.4,0.2-0.8,0.3-1.2,0.3c-0.5,0-0.9-0.1-1.2-0.3
		c-0.4-0.2-0.6-0.5-0.8-1c-0.2-0.4-0.3-0.9-0.3-1.4v-0.3c0-0.6,0.1-1,0.3-1.5c0.2-0.4,0.5-0.7,0.8-1c0.4-0.2,0.8-0.3,1.2-0.3
		c0.5,0,0.9,0.1,1.2,0.3c0.4,0.2,0.6,0.5,0.8,1s0.3,0.9,0.3,1.5V483.1L80.6,483.1z M79.6,482.8c0-0.6-0.1-1.1-0.4-1.4
		s-0.6-0.5-1-0.5s-0.8,0.2-1,0.5s-0.4,0.8-0.4,1.4v0.3c0,0.6,0.1,1.1,0.4,1.4c0.2,0.3,0.6,0.5,1,0.5s0.8-0.2,1-0.5s0.4-0.8,0.4-1.5
		V482.8L79.6,482.8z"/>
	<path class="st63" d="M81.6,485.8v-5.7h1.9c0.6,0,1.1,0.1,1.5,0.4s0.5,0.6,0.5,1.2c0,0.3-0.1,0.5-0.2,0.7s-0.3,0.4-0.6,0.5
		c0.3,0.1,0.5,0.2,0.7,0.5s0.3,0.5,0.3,0.8c0,0.5-0.2,0.9-0.5,1.2s-0.8,0.4-1.5,0.4C83.7,485.8,81.6,485.8,81.6,485.8z M82.6,482.5
		h1c0.3,0,0.5-0.1,0.7-0.2s0.3-0.3,0.3-0.6c0-0.3-0.1-0.5-0.2-0.6s-0.4-0.2-0.7-0.2h-1v1.6L82.6,482.5L82.6,482.5z M82.6,483.2v1.8
		h1.1c0.3,0,0.6-0.1,0.7-0.2c0.2-0.2,0.3-0.4,0.3-0.6c0-0.6-0.3-0.9-0.9-0.9L82.6,483.2L82.6,483.2z"/>
	<path class="st63" d="M89.6,484.3c0-0.2-0.1-0.4-0.3-0.6s-0.5-0.3-1-0.4s-0.8-0.3-1.1-0.5c-0.5-0.3-0.8-0.8-0.8-1.3
		s0.2-0.8,0.6-1.1c0.4-0.3,0.9-0.4,1.5-0.4c0.4,0,0.7,0.1,1.1,0.2c0.3,0.1,0.6,0.4,0.7,0.6c0.2,0.3,0.3,0.6,0.3,0.9h-1
		c0-0.3-0.1-0.5-0.3-0.7s-0.5-0.2-0.8-0.2s-0.6,0.1-0.8,0.2c-0.2,0.1-0.3,0.3-0.3,0.6c0,0.2,0.1,0.4,0.3,0.5s0.5,0.3,1,0.4
		c0.4,0.1,0.8,0.3,1.1,0.4c0.3,0.2,0.5,0.4,0.6,0.6s0.2,0.5,0.2,0.8c0,0.5-0.2,0.9-0.5,1.1s-0.9,0.4-1.5,0.4c-0.4,0-0.8-0.1-1.1-0.2
		c-0.3-0.2-0.6-0.4-0.8-0.6s-0.3-0.6-0.3-0.9h1c0,0.3,0.1,0.6,0.3,0.8s0.5,0.3,0.9,0.3c0.3,0,0.6-0.1,0.8-0.2
		C89.5,484.7,89.6,484.5,89.6,484.3L89.6,484.3z"/>
</g>
<path id="Forma_1_4_" class="st4" d="M106.4,486h-3.6c-0.4,0-0.8-0.4-0.8-0.8v-22.4c0-0.5,0.4-0.8,0.8-0.8h16.1
	c0.2,0,0.4,0.1,0.6,0.3l6.2,6.2c0.2,0.1,0.3,0.4,0.3,0.6v9c-0.5,0.1-1.7,0.1-1.6-0.6V470c-1.3-1.6-5.7-5.8-5.7-5.8l-0.6-0.4h-14.5
	v20.7h2.6C106.3,484.7,106.3,485.7,106.4,486L106.4,486z"/>
<rect x="108" y="471" class="st4" width="13" height="3"/>
<g class="st62">
	<path class="st4" d="M110,480.1h1v4c0,0.5-0.2,1-0.5,1.3s-0.8,0.5-1.3,0.5c-0.6,0-1.1-0.2-1.4-0.5s-0.5-0.7-0.5-1.3h1
		c0,0.3,0.1,0.5,0.2,0.7s0.4,0.2,0.7,0.2c0.3,0,0.5-0.1,0.6-0.3c0.2-0.2,0.2-0.4,0.2-0.7L110,480.1L110,480.1z"/>
	<path class="st4" d="M116.6,483.1c0,0.6-0.1,1-0.3,1.5c-0.2,0.4-0.5,0.7-0.8,1c-0.4,0.2-0.8,0.3-1.2,0.3c-0.5,0-0.9-0.1-1.2-0.3
		c-0.4-0.2-0.6-0.5-0.8-1c-0.2-0.4-0.3-0.9-0.3-1.4v-0.3c0-0.6,0.1-1,0.3-1.5c0.2-0.4,0.5-0.7,0.8-1c0.4-0.2,0.8-0.3,1.2-0.3
		c0.5,0,0.9,0.1,1.2,0.3c0.4,0.2,0.6,0.5,0.8,1s0.3,0.9,0.3,1.5V483.1L116.6,483.1z M115.6,482.8c0-0.6-0.1-1.1-0.4-1.4
		s-0.6-0.5-1-0.5s-0.8,0.2-1,0.5s-0.4,0.8-0.4,1.4v0.3c0,0.6,0.1,1.1,0.4,1.4c0.2,0.3,0.6,0.5,1,0.5s0.8-0.2,1-0.5s0.4-0.8,0.4-1.5
		V482.8L115.6,482.8z"/>
	<path class="st4" d="M117.6,485.8v-5.7h1.9c0.6,0,1.1,0.1,1.5,0.4s0.5,0.6,0.5,1.2c0,0.3-0.1,0.5-0.2,0.7s-0.3,0.4-0.6,0.5
		c0.3,0.1,0.5,0.2,0.7,0.5s0.3,0.5,0.3,0.8c0,0.5-0.2,0.9-0.5,1.2s-0.8,0.4-1.5,0.4C119.7,485.8,117.6,485.8,117.6,485.8z
		 M118.6,482.5h1c0.3,0,0.5-0.1,0.7-0.2s0.3-0.3,0.3-0.6c0-0.3-0.1-0.5-0.2-0.6s-0.4-0.2-0.7-0.2h-1v1.6L118.6,482.5L118.6,482.5z
		 M118.6,483.2v1.8h1.1c0.3,0,0.6-0.1,0.7-0.2c0.2-0.2,0.3-0.4,0.3-0.6c0-0.6-0.3-0.9-0.9-0.9L118.6,483.2L118.6,483.2z"/>
	<path class="st4" d="M125.6,484.3c0-0.2-0.1-0.4-0.3-0.6s-0.5-0.3-1-0.4s-0.8-0.3-1.1-0.5c-0.5-0.3-0.8-0.8-0.8-1.3
		s0.2-0.8,0.6-1.1c0.4-0.3,0.9-0.4,1.5-0.4c0.4,0,0.7,0.1,1.1,0.2c0.3,0.1,0.6,0.4,0.7,0.6c0.2,0.3,0.3,0.6,0.3,0.9h-1
		c0-0.3-0.1-0.5-0.3-0.7s-0.5-0.2-0.8-0.2s-0.6,0.1-0.8,0.2c-0.2,0.1-0.3,0.3-0.3,0.6c0,0.2,0.1,0.4,0.3,0.5s0.5,0.3,1,0.4
		c0.4,0.1,0.8,0.3,1.1,0.4c0.3,0.2,0.5,0.4,0.6,0.6s0.2,0.5,0.2,0.8c0,0.5-0.2,0.9-0.5,1.1s-0.9,0.4-1.5,0.4c-0.4,0-0.8-0.1-1.1-0.2
		c-0.3-0.2-0.6-0.4-0.8-0.6s-0.3-0.6-0.3-0.9h1c0,0.3,0.1,0.6,0.3,0.8s0.5,0.3,0.9,0.3c0.3,0,0.6-0.1,0.8-0.2
		C125.5,484.7,125.6,484.5,125.6,484.3L125.6,484.3z"/>
</g>
<path class="st64" d="M39.5,219.8c-0.1-0.1-11.3-10.8-11.3-21.9c0-0.3-0.2-0.5-0.5-0.5s-0.5,0.2-0.5,0.5c0,11-11.2,21.8-11.3,21.9
	s-0.2,0.3-0.1,0.4c0,0.2,0.1,0.3,0.3,0.4c6.3,2.9,5.7,7.5,5.4,8.8h-4.1c-0.3,0-0.5,0.2-0.5,0.5s0.2,0.5,0.5,0.5h20.8
	c0.3,0,0.5-0.2,0.5-0.5s-0.2-0.5-0.5-0.5H34c-0.3-1.3-1-5.9,5.4-8.8c0.2-0.1,0.3-0.2,0.3-0.4C39.7,220.1,39.7,219.9,39.5,219.8z
	 M27.7,216.8c0.7,0,1.3,0.6,1.3,1.3s-0.6,1.3-1.3,1.3c-0.7,0-1.3-0.6-1.3-1.3S27,216.8,27.7,216.8z M33,229.4H22.4
	c0.3-1.7,0.6-6.4-5.4-9.4c1.8-1.8,7.8-8.3,10.1-16v11.9c-1,0.2-1.7,1.1-1.7,2.2c0,1.2,1,2.3,2.2,2.3s2.2-1,2.2-2.3
	c0-1.1-0.7-2-1.7-2.2V204c2.4,7.7,8.3,14.1,10.1,16C32.4,223,32.7,227.7,33,229.4z"/>
<path class="st64" d="M83.5,228.3h-24c-0.4,0-0.8-0.4-0.8-0.8v-5.6c0-3,2.6-5.6,6.5-7c-0.1-0.3-0.1-0.7-0.1-1v-4.8
	c0-3.5,2.9-6.4,6.4-6.4s6.4,2.9,6.4,6.4v4.8c0,0.4,0,0.7-0.1,1c3.9,1.4,6.5,4,6.5,7v5.6C84.3,227.9,83.9,228.3,83.5,228.3z
	 M76.3,209.1c0-2.7-2.1-4.8-4.8-4.8s-4.8,2.1-4.8,4.8v4.8c0,0.2,0,0.4,0.1,0.6c0.1,1,0.5,1.8,1.1,2.5l0.1,0.1l0.4,0.4
	c0.1,0.1,0.2,0.1,0.2,0.2l0.3,0.3l0.6,0.3c0.1,0,0.2,0.1,0.3,0.1c0.2,0.1,0.4,0.1,0.6,0.2c0.1,0,0.2,0,0.3,0.1
	c0.3,0.1,0.6,0.1,0.9,0.1s0.6,0,0.9-0.1c0.1,0,0.2,0,0.3-0.1c0.2,0,0.4-0.1,0.6-0.2c0.1,0,0.2-0.1,0.3-0.1l0.6-0.3l0.3-0.3
	c0.1-0.1,0.2-0.1,0.2-0.2c0.1-0.1,0.3-0.2,0.4-0.4l0.1-0.1c0.6-0.7,1-1.6,1.1-2.5c0-0.2,0.1-0.4,0.1-0.6v-4.8H76.3z M82.7,221.9
	c0-2.3-2.1-4.3-5.3-5.4c-1,2.3-3.2,3.8-5.9,3.8c-2.6,0-4.9-1.6-5.9-3.8c-3.2,1.1-5.3,3.1-5.3,5.4v4.8h22.4
	C82.7,226.7,82.7,221.9,82.7,221.9z"/>
<path class="st65" d="M185.5,221v-5.4l-11.2,5.4v-12.7h-6.1v28.5h28.5v-21.2L185.5,221z M173.2,209.5v13.4l11.2-5.4v5.4l11.2-5.4
	v6.8h-26.1v-14.8H173.2L173.2,209.5z M169.5,225.5h12.4v10h-12.4V225.5z M183.1,235.5v-10h12.5v10H183.1z"/>
<path class="st66" d="M54.7,116.9l-0.4-0.7c-0.1-0.1-5.8-10.2-7.4-13.2c-1-1.9-2.2-5-2.2-7.4c0-5.5,4.5-10,10-10s10,4.5,10,10
	c0,2.4-1.1,5.6-2.1,7.4c-1.9,3.3-7.4,13.1-7.4,13.2C55.2,116.2,54.7,116.9,54.7,116.9z M54.7,86.4c-5,0-9.1,4.1-9.1,9.1
	c0,2.2,1,5.1,2.1,7c1.3,2.5,5.6,10.1,7,12.5c1.3-2.3,5.5-9.8,7.1-12.5c1-1.7,2-4.8,2-7C63.7,90.5,59.7,86.4,54.7,86.4z M54.7,100
	c-2.5,0-4.5-2-4.5-4.5s2-4.5,4.5-4.5s4.5,2,4.5,4.5S57.2,100,54.7,100z M54.7,91.9c-2,0-3.6,1.6-3.6,3.6s1.6,3.6,3.6,3.6
	s3.6-1.6,3.6-3.6S56.6,91.9,54.7,91.9z"/>
<path class="st67" d="M233.2,184.9h-16.1v-8.6c0-0.3-0.3-0.6-0.6-0.6h-12.8c-0.3,0-0.6,0.3-0.6,0.6v25.5c0,0.3,0.3,0.6,0.6,0.6h29.5
	c0.3,0,0.6-0.3,0.6-0.6v-16.2C233.9,185.2,233.6,184.9,233.2,184.9L233.2,184.9z M215.9,201.1h-11.5v-24.3h11.5V201.1z M229.7,201.1
	h-9.6v-1.4h6.1c0.3,0,0.6-0.3,0.6-0.6s-0.3-0.6-0.6-0.6h-6.1v-1.3h9.6V201.1L229.7,201.1z M229.7,195.9h-9.6v-1.3h9.6V195.9z
	 M229.7,193.3h-9.6v-1.4h9.6V193.3z M232.6,201.1h-1.7v-9.9c0-0.3-0.3-0.6-0.6-0.6h-10.8c-0.3,0-0.6,0.3-0.6,0.6v9.9h-1.7v-15h15.5
	L232.6,201.1L232.6,201.1z M207.5,198.6h5.2c0.3,0,0.6-0.3,0.6-0.6v-6.9c0-0.3-0.3-0.6-0.6-0.6h-5.2c-0.3,0-0.6,0.3-0.6,0.6v6.9
	C206.9,198.3,207.2,198.6,207.5,198.6z M210.7,191.7h1.4v5.7h-1.4V191.7z M208.1,191.7h1.4v5.7h-1.4V191.7z M207.5,187.5h5.2
	c0.3,0,0.6-0.3,0.6-0.6V180c0-0.3-0.3-0.6-0.6-0.6h-5.2c-0.3,0-0.6,0.3-0.6,0.6v6.9C206.9,187.3,207.2,187.5,207.5,187.5z
	 M210.7,180.7h1.4v5.7h-1.4V180.7z M208.1,180.7h1.4v5.7h-1.4V180.7z M228.1,199.7h0.2c0.3,0,0.6-0.3,0.6-0.6s-0.3-0.6-0.6-0.6h-0.2
	c-0.3,0-0.6,0.3-0.6,0.6S227.8,199.7,228.1,199.7z"/>
<path class="st67" d="M141.8,450.9c-0.3-0.1-0.6,0.1-0.6,0.4l-0.5,2c-0.1,0.3,0.1,0.6,0.4,0.6h0.1c0.2,0,0.4-0.2,0.5-0.4l0.5-2
	C142.2,451.2,142,451,141.8,450.9z M135.5,440.6h0.2l5.6-2.3c0.3-0.1,0.4-0.4,0.3-0.7s-0.4-0.4-0.7-0.3l-5.4,2.2l-14.3-5.9v-0.2
	c0-0.3-0.2-0.5-0.5-0.5s-0.5,0.2-0.5,0.5v0.5c0,0.2,0.1,0.4,0.3,0.5l14.8,6.1C135.4,440.6,135.4,440.6,135.5,440.6L135.5,440.6z
	 M141.6,445.9c-0.1-0.3-0.4-0.4-0.7-0.2c-1,0.5-2.6,1-4.9,1.1v-4.6c0-0.3-0.2-0.5-0.5-0.5s-0.5,0.2-0.5,0.5v4.6
	c-6.4-0.2-8.4-4.1-8.7-4.7v-3.5c0-0.3-0.2-0.5-0.5-0.5s-0.5,0.2-0.5,0.5v3.6v0.2c0.1,0.2,2.3,5.4,10.2,5.4c2.8,0,4.7-0.7,5.9-1.2
	C141.6,446.4,141.7,446.1,141.6,445.9L141.6,445.9z M143.2,451.4c-0.3,0-0.5,0.2-0.5,0.5v1.5c0,0.3,0.2,0.5,0.5,0.5s0.5-0.2,0.5-0.5
	v-1.5C143.7,451.6,143.5,451.4,143.2,451.4z M150.3,433c-0.3,0-0.5,0.2-0.5,0.5v0.2l-6.1,2.5v-0.9l6.9-2.8c0.2-0.1,0.3-0.3,0.3-0.5
	s-0.1-0.4-0.3-0.5l-14.8-6.1c-0.1-0.1-0.3-0.1-0.4,0l-14.8,6.1c-0.2,0.1-0.3,0.3-0.3,0.5s0.1,0.4,0.3,0.5l14.8,6.1h0.2
	c0,0,0.1,0,0.2,0l5.4-2.2c0.3-0.1,0.4-0.4,0.3-0.7s-0.4-0.4-0.7-0.3l-5.2,2.1l-13.5-5.6l13.5-5.6l13.5,5.6l-5.9,2.4l-5.6-2.1v-0.3
	c0-0.9-0.9-1.5-2-1.5s-2,0.7-2,1.5c0,0.9,0.9,1.5,2,1.5c0.5,0,1-0.1,1.3-0.4l5.8,2.2v12.6c-0.6,0.2-1,0.8-1,1.4
	c0,0.8,0.7,1.5,1.5,1.5s1.5-0.7,1.5-1.5c0-0.7-0.4-1.2-1-1.4V445c1.5-1.1,2-2.6,2-2.7s0-0.1,0-0.2v-3.6c0-0.3-0.2-0.5-0.5-0.5
	s-0.5,0.2-0.5,0.5v3.5c-0.1,0.2-0.4,0.9-1,1.5v-6.3l6.9-2.8c0.2-0.1,0.3-0.3,0.3-0.5v-0.5C150.9,433.2,150.6,433,150.3,433
	L150.3,433z M135.5,432.4c-0.6,0-1-0.3-1-0.5s0.4-0.5,1-0.5s1,0.3,1,0.5S136.1,432.4,135.5,432.4z M143.2,449.8
	c-0.3,0-0.5-0.2-0.5-0.5s0.2-0.5,0.5-0.5s0.5,0.2,0.5,0.5S143.5,449.8,143.2,449.8z M145.2,451.3c-0.1-0.3-0.3-0.4-0.6-0.4
	c-0.3,0.1-0.4,0.3-0.4,0.6l0.5,2c0.1,0.2,0.3,0.4,0.5,0.4h0.1c0.3-0.1,0.4-0.3,0.4-0.6L145.2,451.3z"/>
<path class="st67" d="M101.4,208c-0.7,0-1.4,0.3-1.8,0.8c-0.5,0.5-0.7,1.2-0.6,1.9v22c0,1.3,1,2.3,2.3,2.3h17.9v-27
	C119.2,208,101.4,208,101.4,208z M99.8,232.7v-20.2c0.4,0.3,0.8,0.5,1.3,0.5v21.1C100.4,234.1,99.8,233.5,99.8,232.7L99.8,232.7z
	 M118.3,234.1h-16.2V213h1.3v11.3c0,0.3,0.2,0.6,0.5,0.6h0.2h0.1h0.1h0.1c0,0,0.1,0,0.1-0.1c0,0,0.1-0.1,0.1-0.2l1.9-3.2l1.9,3.2
	c0.1,0.2,0.4,0.4,0.7,0.3h0.1c0.3-0.1,0.5-0.3,0.5-0.6V213h8.5L118.3,234.1z M108.9,212.3l-0.1,0.1v11.1l-2.2-3.7l-2.2,3.7v-10.9
	l0.7-1.5h4.4L108.9,212.3L108.9,212.3z M110,212.1l0.9-1.8h-6.4l-0.9,1.8h-2.1c-0.9,0-1.6-0.6-1.7-1.4c0-0.4,0.1-0.9,0.4-1.2
	s0.7-0.5,1.2-0.5h16.8v0.4H116c-0.2,0-0.4,0.2-0.4,0.4s0.2,0.4,0.4,0.4h2.2v0.5h-1.8c-0.2,0-0.4,0.2-0.4,0.4s0.2,0.4,0.4,0.4h1.8
	v0.4H110V212.1L110,212.1z"/>
<path id="Forma_1_5_" class="st61" d="M139.6,468h12.5c0.2,0,0.3,0.1,0.5,0.2l4.8,4.8c0.1,0.1,0.2,0.3,0.2,0.4V486
	c0,0.3-0.3,0.6-0.6,0.6h-17.3c-0.3,0-0.6-0.3-0.6-0.6v-17.3C139,468.3,139.3,468,139.6,468L139.6,468z M151.5,469.3h-11.2v16.1h16.1
	v-11.3c-1-1.2-4.4-4.5-4.4-4.5L151.5,469.3L151.5,469.3z"/>
<rect x="143.6" y="475" class="st61" width="10.1" height="2.3"/>
<path class="st68" d="M228.7,481.1h-1.3v-22.3c0-0.3-0.2-0.4-0.4-0.4h-21c-0.3,0-0.4,0.2-0.4,0.4v22.3h-1.3c-0.3,0-0.4,0.2-0.4,0.4
	v1.7c0,0.3,0.2,0.4,0.4,0.4h24.4c0.3,0,0.4-0.2,0.4-0.4v-1.7C229.1,481.2,228.9,481.1,228.7,481.1z M206.4,459.2h20.2V481h-6.3v-3.6
	c0-0.3-0.2-0.4-0.4-0.4h-6.7c-0.3,0-0.4,0.2-0.4,0.4v3.6h-6.3v-21.8H206.4z M219.4,477.9v3.2h-2.5v-3.2H219.4z M216.1,477.9v3.2
	h-2.5v-3.2H216.1z M228.3,482.8h-23.5V482h23.5V482.8z M211.9,460.5h-3.4c-0.3,0-0.4,0.2-0.4,0.4v2.5c0,0.3,0.2,0.4,0.4,0.4h3.4
	c0.3,0,0.4-0.2,0.4-0.4v-2.5C212.3,460.7,212.1,460.5,211.9,460.5z M211.5,463H209v-1.7h2.5V463z M211.9,465.1h-3.4
	c-0.3,0-0.4,0.2-0.4,0.4v2.5c0,0.3,0.2,0.4,0.4,0.4h3.4c0.3,0,0.4-0.2,0.4-0.4v-2.5C212.3,465.3,212.1,465.1,211.9,465.1z
	 M211.5,467.6H209V466h2.5V467.6z M214.8,468.5h3.4c0.3,0,0.4-0.2,0.4-0.4v-2.5c0-0.3-0.2-0.4-0.4-0.4h-3.4c-0.3,0-0.4,0.2-0.4,0.4
	v2.5C214.4,468.3,214.6,468.5,214.8,468.5z M215.2,466h2.5v1.7h-2.5V466z M221.1,468.5h3.4c0.3,0,0.4-0.2,0.4-0.4v-2.5
	c0-0.3-0.2-0.4-0.4-0.4h-3.4c-0.3,0-0.4,0.2-0.4,0.4v2.5C220.7,468.3,220.9,468.5,221.1,468.5z M221.5,466h2.5v1.7h-2.5V466z
	 M214.8,473.1h3.4c0.3,0,0.4-0.2,0.4-0.4v-2.5c0-0.3-0.2-0.4-0.4-0.4h-3.4c-0.3,0-0.4,0.2-0.4,0.4v2.5
	C214.4,472.9,214.6,473.1,214.8,473.1z M215.2,470.6h2.5v1.7h-2.5V470.6z M221.1,473.1h3.4c0.3,0,0.4-0.2,0.4-0.4v-2.5
	c0-0.3-0.2-0.4-0.4-0.4h-3.4c-0.3,0-0.4,0.2-0.4,0.4v2.5C220.7,472.9,220.9,473.1,221.1,473.1z M221.5,470.6h2.5v1.7h-2.5V470.6z
	 M211.9,469.7h-3.4c-0.3,0-0.4,0.2-0.4,0.4v2.5c0,0.3,0.2,0.4,0.4,0.4h3.4c0.3,0,0.4-0.2,0.4-0.4v-2.5
	C212.3,469.9,212.1,469.7,211.9,469.7z M211.5,472.3H209v-1.7h2.5V472.3z M214.8,463.9h3.4c0.3,0,0.4-0.2,0.4-0.4V461
	c0-0.3-0.2-0.4-0.4-0.4h-3.4c-0.3,0-0.4,0.2-0.4,0.4v2.5C214.4,463.7,214.6,463.9,214.8,463.9z M215.2,461.3h2.5v1.7h-2.5V461.3z
	 M221.1,463.9h3.4c0.3,0,0.4-0.2,0.4-0.4V461c0-0.3-0.2-0.4-0.4-0.4h-3.4c-0.3,0-0.4,0.2-0.4,0.4v2.5
	C220.7,463.7,220.9,463.9,221.1,463.9z M221.5,461.3h2.5v1.7h-2.5V461.3z"/>
<path class="st69" d="M212.5,549.6c0-0.2-0.1-0.4-0.3-0.5l-3.7-2.6v-2.7c0-0.4-0.3-0.7-0.7-0.7h-4.3l-3.6-2.5
	c-0.2-0.2-0.5-0.2-0.8,0l-3.7,2.5h-4.3c-0.4,0-0.7,0.3-0.7,0.7v2.7l-3.7,2.6c-0.2,0.1-0.3,0.3-0.3,0.5v14.3c0,0.2,0.1,0.3,0.2,0.5
	c0.1,0.1,0.3,0.2,0.5,0.2h24.7c0.4,0,0.7-0.3,0.7-0.7L212.5,549.6L212.5,549.6z M208.5,548.1l2.1,1.5l-2.1,1.5V548.1z M199.5,541.9
	l1.7,1.2h-3.4L199.5,541.9z M191.9,544.4h15.3v7.5l-5.1,3.5l-2.1-1.6c-0.2-0.2-0.6-0.2-0.8,0l-2.1,1.6l-5.1-3.5L191.9,544.4
	L191.9,544.4z M190.5,548.1v3l-2.2-1.5L190.5,548.1z M187.8,550.8l8.1,5.5l-8,6.2L187.8,550.8z M189.1,563.2l10.4-8l10.3,7.9
	L189.1,563.2z M203.1,556.3l8-5.5v11.7L203.1,556.3z M195,548.4h9c0.4,0,0.7-0.3,0.7-0.7s-0.3-0.7-0.7-0.7h-9
	c-0.4,0-0.7,0.3-0.7,0.7S194.6,548.4,195,548.4z M204.7,551.1c0-0.4-0.3-0.7-0.7-0.7h-9c-0.4,0-0.7,0.3-0.7,0.7s0.3,0.7,0.7,0.7h9
	C204.4,551.8,204.7,551.5,204.7,551.1z"/>
<path class="st70" d="M159.8,529.2c0-0.5,0.1-2.1,1.2-2.6c1.1-0.4,2.3,0.7,2.5,1c0.3,0.3,0.2,0.7,0,1c-0.3,0.3-0.7,0.2-1,0
	c-0.4-0.4-0.9-0.7-1-0.6c0,0-0.3,0.2-0.3,1.3c-0.1,3.1,2.3,4.1,2.5,4.1c0.2,0.1,0.4,0.3,0.4,0.6c0.7,8,7,10.6,10,10.6
	s9.3-2.6,10-10.6c0-0.3,0.2-0.5,0.4-0.6c0.1,0,2.5-1,2.5-4.1c0-1.1-0.3-1.3-0.3-1.3c-0.1,0-0.7,0.3-1,0.6s-0.7,0.3-1,0s-0.3-0.7,0-1
	c0.2-0.2,1.4-1.4,2.5-1s1.2,2,1.2,2.6c0.1,3-1.7,4.6-2.9,5.3c-0.9,7.9-7.1,11.5-11.3,11.5s-10.5-3.6-11.3-11.5
	C161.5,533.8,159.7,532.1,159.8,529.2L159.8,529.2z M177.2,547.4c0,1.2-0.6,2.1-1.3,2.6c0.1,0.3,0.3,1.5,0.6,3l-4.4-2.2
	c0.1-0.4,0.1-0.7,0.2-0.8c-0.7-0.6-1.3-1.4-1.3-2.6c0-0.4,0.3-0.7,0.7-0.7h5C176.9,546.8,177.2,547.1,177.2,547.4z M172.4,548.1
	c0.3,0.9,1.3,1.3,1.7,1.4c0.4-0.1,1.3-0.5,1.7-1.4H172.4z M169.9,547.2c-0.2-0.3-0.6-0.5-0.9-0.3l-3.2,1.5l-0.3-4.9
	c0-0.4-0.3-0.7-0.7-0.6c-0.4,0-0.7,0.3-0.6,0.7l0.1,1.3c-2.3,0.8-13.5,5.4-13.5,18.7c0,0.4,0.3,0.7,0.7,0.7s0.7-0.3,0.7-0.7
	c0-12,9.5-16.3,12.2-17.3l0.2,3.3c0,0.2,0.1,0.4,0.3,0.5c0.1,0.1,0.2,0.1,0.3,0.1s0.2,0,0.3-0.1l4.1-1.9
	C169.9,547.9,170.1,547.5,169.9,547.2L169.9,547.2z M160.5,560.4c-0.4,0-0.7,0.3-0.7,0.7v2.4c0,0.4,0.3,0.7,0.7,0.7s0.7-0.3,0.7-0.7
	v-2.4C161.2,560.7,160.9,560.4,160.5,560.4z M183.7,544.7l0.1-1.3c0-0.4-0.3-0.7-0.6-0.7c-0.4,0-0.7,0.3-0.7,0.6l-0.3,4.9l-3.2-1.5
	c-0.3-0.2-0.7,0-0.9,0.3s0,0.7,0.3,0.9l4.1,1.9c0.1,0,0.2,0.1,0.3,0.1s0.2,0,0.3-0.1c0.2-0.1,0.3-0.3,0.3-0.5l0.2-3.3
	c2.7,1,12.2,5.5,12.2,17.3c0,0.4,0.3,0.7,0.7,0.7s0.7-0.3,0.7-0.7C197.2,550.2,186.1,545.6,183.7,544.7L183.7,544.7z M182.2,529.2
	c0.2,0,0.4,0.1,0.5,0.2s0.2,0.3,0.2,0.5c0,0.6-0.1,3.4-1.3,4.3c-0.7,0.6-1.9,1-3,1c-1,0-1.9-0.3-2.5-0.9c-0.6-0.7-1-2.2-1.3-3.2
	h-1.7c-0.2,1.1-0.6,2.6-1.3,3.2c-0.5,0.6-1.4,0.9-2.5,0.9s-2.2-0.4-3-1c-1.2-0.9-1.3-3.8-1.3-4.3c0-0.2,0.1-0.4,0.2-0.5
	s0.3-0.2,0.5-0.2h6.8c0.2,0,0.4,0.1,0.5,0.2s0.1,0.2,0.1,0.2h1.4c0-0.1,0.1-0.2,0.1-0.2c0.1-0.2,0.3-0.2,0.5-0.2H182.2z
	 M171.9,530.6h-5.3c0.1,1.1,0.4,2.3,0.7,2.6c0.5,0.4,1.3,0.7,2.1,0.7c0.6,0,1.2-0.2,1.5-0.5C171.3,533,171.7,531.7,171.9,530.6z
	 M181.5,530.6h-5.3c0.2,1.1,0.6,2.4,1,2.8c0.3,0.3,0.8,0.5,1.5,0.5c0.8,0,1.6-0.3,2.1-0.7C181.1,532.9,181.4,531.7,181.5,530.6z
	 M163.6,526.3c0.4,0,0.7-0.3,0.7-0.7c0-1.8,0.6-3.4,1.5-4.6c0.2-0.3,0.2-0.7-0.1-1c-0.3-0.2-0.7-0.2-1,0.1c-1.2,1.4-1.9,3.4-1.9,5.4
	C162.9,526,163.2,526.3,163.6,526.3z M167.7,519.2h10c0.2,0,5.4,0.1,5.4,6.3c0,0.4,0.3,0.7,0.7,0.7s0.7-0.3,0.7-0.7
	c0-7.5-6.7-7.6-6.8-7.6h-10c-0.4,0-0.7,0.3-0.7,0.7C167.1,518.9,167.4,519.2,167.7,519.2L167.7,519.2z M168.9,516.6h9.4
	c0.3,0,6.4,0,7.1,6.2c0,0.3,0.3,0.6,0.7,0.6h0.1c0.4,0,0.6-0.4,0.6-0.8c-0.9-7.5-8.4-7.4-8.5-7.4h-9.4c-0.4,0-0.7,0.3-0.7,0.7
	S168.5,516.6,168.9,516.6L168.9,516.6z M177.4,558.4l-6.2-3.1c-0.1,0.6-0.2,1.1-0.3,1.7l6.8,3.4
	C177.7,559.8,177.5,559.1,177.4,558.4L177.4,558.4z M171.5,553.9l5.6,2.8c-0.1-0.7-0.2-1.3-0.4-2l-5-2.5
	C171.7,552.8,171.6,553.3,171.5,553.9L171.5,553.9z M169.8,563.5h4.4l-4-2C170,562.3,169.9,563,169.8,563.5z M170.7,558.4
	c-0.1,0.6-0.2,1.1-0.3,1.6l6.8,3.4h1c-0.1-0.3-0.1-0.8-0.2-1.3L170.7,558.4z"/>
<path class="st70" d="M128.2,532L128.2,532v-0.2v-0.1v-0.1v-0.1v-0.1v-0.1l-0.1-0.1l-12-12l-0.1-0.1h-0.1h-0.1h-0.1h-25
	c-0.5,0-0.9,0.4-0.9,0.9v47.2c0,0.5,0.4,0.9,0.9,0.9h36.7c0.5,0,0.9-0.4,0.9-0.9L128.2,532L128.2,532z M125.2,531.1h-9v-9
	L125.2,531.1z M126.4,566.2H91.6v-45.3h22.8V532c0,0.2,0.1,0.5,0.3,0.6c0.2,0.2,0.4,0.3,0.6,0.3h11.1L126.4,566.2L126.4,566.2z
	 M103,531.7c2.1,0,3.8-1.7,3.8-3.8s-1.7-3.8-3.8-3.8c-2.1,0-3.8,1.7-3.8,3.8S100.9,531.7,103,531.7z M103,526c1.1,0,1.9,0.9,1.9,2
	s-0.9,2-1.9,2c-1.1,0-1.9-0.9-1.9-2C101,526.8,101.9,526,103,526z M98.8,538.5c0.5,0,0.9-0.4,0.9-0.9V536c0-1,0.8-1.9,1.9-1.9h2.9
	c1,0,1.9,0.8,1.9,1.9v1.6c0,0.5,0.4,0.9,0.9,0.9s0.9-0.4,0.9-0.9V536c0-2-1.6-3.7-3.7-3.7h-2.9c-2,0-3.7,1.6-3.7,3.7v1.6
	C97.9,538.1,98.3,538.5,98.8,538.5L98.8,538.5z M97.9,544.9c0,0.5,0.4,0.9,0.9,0.9h20.5c0.5,0,0.9-0.4,0.9-0.9s-0.4-0.9-0.9-0.9
	H98.8C98.3,544,97.9,544.4,97.9,544.9z M119.2,557.4H98.8c-0.5,0-0.9,0.4-0.9,0.9s0.4,0.9,0.9,0.9h20.5c0.5,0,0.9-0.4,0.9-0.9
	C120.1,557.8,119.7,557.4,119.2,557.4z M119.2,550.7H98.8c-0.5,0-0.9,0.4-0.9,0.9s0.4,0.9,0.9,0.9h20.5c0.5,0,0.9-0.4,0.9-0.9
	C120.1,551.1,119.7,550.7,119.2,550.7z"/>
<path class="st71" d="M216.5,509.4c-0.1,0-0.3-0.1-0.4-0.2l-3.3-3.3c-0.2-0.2-0.2-0.6,0-0.8s0.6-0.2,0.8,0l2.9,2.9l8.2-8.2
	c0.2-0.2,0.6-0.2,0.8,0s0.2,0.6,0,0.8l-8.6,8.6C216.8,509.3,216.6,509.4,216.5,509.4z"/>
<path class="st5" d="M55.8,518.8l3,5.7l6,1.2l-4.2,4.7l0.8,6.4l-5.6-2.7l-5.6,2.7l0.8-6.4l-4.2-4.7l6-1.2L55.8,518.8"/>
<path class="st72" d="M198.5,391.9c-4.8,0-8.6,3.9-8.6,8.6c0,4.8,3.9,8.6,8.6,8.6c4.8,0,8.6-3.9,8.6-8.6
	C207.1,395.7,203.3,391.9,198.5,391.9z M198.5,408.1c-4.2,0-7.6-3.4-7.6-7.6s3.4-7.6,7.6-7.6c4.2,0,7.6,3.4,7.6,7.6
	S202.7,408.1,198.5,408.1z M198.6,396.2c-0.5,0-0.9,0.4-0.9,0.9s0.4,0.9,0.9,0.9s0.9-0.4,0.9-0.9S199.1,396.2,198.6,396.2z
	 M198.4,399.4c-0.3,0-0.5,0.2-0.5,0.5v4.5c0,0.3,0.2,0.5,0.5,0.5s0.5-0.2,0.5-0.5v-4.5C198.9,399.6,198.7,399.4,198.4,399.4z"/>
<path class="st4" d="M23.6,537.9l4.6-4.7l4.6,4.7c0.2,0.2,0.3,0.2,0.6,0.2c0.1,0,0.2,0,0.3-0.1c0.3-0.1,0.5-0.4,0.5-0.7v-16.1
	c0-0.4-0.3-0.8-0.8-0.8H23c-0.4,0-0.8,0.3-0.8,0.8v16.1c0,0.3,0.2,0.6,0.5,0.7C23,538.2,23.4,538.1,23.6,537.9L23.6,537.9z
	 M23.8,522h8.7v13.4l-3.8-3.9c-0.2-0.2-0.3-0.2-0.6-0.2c-0.2,0-0.4,0.1-0.6,0.2l-3.8,3.9L23.8,522z"/>
<path class="st69" d="M127.4,592.4L127.4,592.4L127.4,592.4v-0.2v-0.1V592v-0.1v-0.1L115.3,580l-0.1-0.1h-0.1H115h-0.1H90.6
	c-0.5,0-0.9,0.4-0.9,0.9V627c0,0.5,0.4,0.9,0.9,0.9h36c0.5,0,0.9-0.4,0.9-0.9L127.4,592.4L127.4,592.4z M124.4,591.5h-8.8v-8.8
	L124.4,591.5z M125.6,625.9H91.4v-44.5h22.4v10.9c0,0.2,0.1,0.5,0.3,0.6c0.2,0.2,0.4,0.3,0.6,0.3h10.9
	C125.6,593.2,125.6,625.9,125.6,625.9z M97.6,605.1c0,0.5,0.4,0.9,0.9,0.9h20.1c0.5,0,0.9-0.4,0.9-0.9s-0.4-0.9-0.9-0.9H98.5
	C98,604.2,97.6,604.6,97.6,605.1z M118.6,617.3H98.5c-0.5,0-0.9,0.4-0.9,0.9s0.4,0.9,0.9,0.9h20.1c0.5,0,0.9-0.4,0.9-0.9
	S119.1,617.3,118.6,617.3z M118.6,610.7H98.5c-0.5,0-0.9,0.4-0.9,0.9s0.4,0.9,0.9,0.9h20.1c0.5,0,0.9-0.4,0.9-0.9
	S119.1,610.7,118.6,610.7z"/>
<path class="st73" d="M126.5,618.2c4.6,0,8.4,3.8,8.4,8.4s-3.8,8.4-8.4,8.4s-8.4-3.8-8.4-8.4S121.9,618.2,126.5,618.2z"/>
<path class="st69" d="M127.2,629.5c0.3,0,0.5-0.3,0.5-0.5v-6.8c0-0.3-0.3-0.5-0.5-0.5c-0.3,0-0.5,0.3-0.5,0.5v6.8
	C126.7,629.4,126.8,629.5,127.2,629.5z M127.2,630.1c-0.3,0-0.6,0.3-0.6,0.6s0.3,0.6,0.6,0.6c0.3,0,0.6-0.3,0.6-0.6
	C127.7,630.4,127.5,630.1,127.2,630.1z"/>
<path class="st4" d="M95.3,395.2c0-26.2-21.3-47.5-47.5-47.5S0.3,369,0.3,395.2c0,3.3,0.3,6.4,1,9.5h93.1
	C94.9,401.6,95.3,398.5,95.3,395.2"/>
<path class="st74" d="M88.6,384.9H78.2c0.5,0.3,1.6,1.7,1.6,4.4v9.4H80c1.8,0,3.3,1.5,3.3,3.3c0,0.8-0.3,1.5-0.7,2h5.9
	c0.6,0,1.1-0.5,1.1-1.1v-17C89.7,385.4,89.2,384.9,88.6,384.9L88.6,384.9z"/>
<path class="st74" d="M44.8,357.1c16.3,0,30.3,9.7,36.6,23.6h7.5c-5.9-17-22.1-29.2-41.1-29.2c-24,0-43.5,19.4-43.5,43.4
	c0,2.5,0.2,5,0.6,7.4c-0.2-1.7-0.3-3.4-0.3-5.1C4.7,375,22.7,357.1,44.8,357.1"/>
<path class="st75" d="M84.3,396.5l0.2,0.8c-0.2,0-0.3,0.1-0.4,0.2s-0.1,0.2-0.1,0.4c0,0.2,0.1,0.4,0.2,0.5s0.4,0.2,0.7,0.2
	c0.4,0,0.6-0.1,0.8-0.2s0.2-0.3,0.2-0.5s0-0.3-0.1-0.4s-0.2-0.2-0.5-0.2l0.1-0.8c0.4,0.1,0.7,0.2,0.8,0.5c0.2,0.2,0.3,0.6,0.3,1
	c0,0.5-0.1,0.8-0.4,1.1s-0.7,0.4-1.2,0.4s-0.9-0.1-1.2-0.4c-0.3-0.3-0.4-0.6-0.4-1.1c0-0.4,0.1-0.7,0.2-0.9
	C83.7,396.7,83.9,396.6,84.3,396.5"/>
<path class="st75" d="M84.9,395.2c0.3,0,0.6-0.1,0.7-0.2c0.2-0.1,0.2-0.3,0.2-0.5s-0.1-0.4-0.2-0.5c-0.2-0.1-0.4-0.2-0.7-0.2
	s-0.5,0.1-0.7,0.2s-0.2,0.3-0.2,0.5s0.1,0.4,0.2,0.5C84.4,395.1,84.6,395.2,84.9,395.2 M84.9,396c-0.3,0-0.5-0.1-0.8-0.2
	s-0.5-0.3-0.6-0.6c-0.1-0.3-0.2-0.5-0.2-0.8c0-0.5,0.2-0.9,0.5-1.2s0.7-0.5,1.2-0.5s0.9,0.2,1.2,0.5c0.3,0.3,0.5,0.7,0.5,1.2
	c0,0.3-0.1,0.6-0.2,0.8c-0.1,0.3-0.3,0.5-0.6,0.6C85.5,396,85.2,396,84.9,396z"/>
<path class="st75" d="M83.3,392.2v-0.8h0.4c-0.3-0.3-0.5-0.6-0.5-1c0-0.2,0-0.4,0.1-0.5c0.1-0.2,0.2-0.3,0.4-0.4
	c-0.2-0.1-0.3-0.3-0.4-0.4c-0.1-0.2-0.1-0.3-0.1-0.5s0-0.4,0.1-0.6s0.2-0.3,0.4-0.4c0.1-0.1,0.4-0.1,0.6-0.1h2v0.8h-1.8
	c-0.3,0-0.5,0-0.6,0.1s-0.2,0.2-0.2,0.4c0,0.1,0,0.2,0.1,0.3s0.2,0.2,0.3,0.2s0.4,0.1,0.7,0.1h1.5v0.8h-1.7H84l-0.2,0.1
	c0,0.1-0.1,0.1-0.1,0.3c0,0.1,0,0.2,0.1,0.3s0.2,0.2,0.3,0.2s0.3,0.1,0.6,0.1h1.5v0.8h-2.9"/>
<path class="st75" d="M45.1,379.4c0,1.3-1,2.3-2.3,2.3s-2.3-1-2.3-2.3s1-2.3,2.3-2.3S45.1,378.1,45.1,379.4"/>
<path class="st75" d="M24.2,403.8v-25.1h4.7v7.2c1.6-1.5,3.1-2.7,5.1-2.7c2.9,0,4.3,1.4,4.3,5.2v15.3h-4.7V389
	c0-1.3-0.4-2.2-1.7-2.2c-1,0-2,0.9-3,1.8v15.2H24.2"/>
<rect x="40.5" y="383.6" class="st75" width="4.7" height="20.2"/>
<path class="st75" d="M18.8,389.8c-0.6-1.9-1.8-2.7-3.2-2.7c-1.1,0-1.9,0.8-1.9,1.8c0,3.1,9.1,3.2,9.1,9.2c0,4-2.8,6.1-6.7,6.1
	c-2.8,0-5.4-0.8-7.8-5.4l3.4-1.2l1.5,2.3l0.5-0.4c0.6,0.6,1.4,1,2.4,1c1.4,0,2.3-0.7,2.3-1.8c0-3.9-9.1-2.9-9.1-9.7
	c0-3.8,3.1-5.6,6.4-5.6c3.5,0,5.9,2,7,5L18.8,389.8"/>
<path class="st75" d="M47.3,403.8v-20.2h4.5v2.3c1.7-1.5,3.3-2.7,5.2-2.7c2.9,0,4.3,1.4,4.3,5.2v15.3h-4.7V389
	c0-1.3-0.4-2.2-1.7-2.2c-1,0-2,0.9-3,1.8v15.2H47.3"/>
<path class="st75" d="M73.1,391v-1.1c0-1.8-0.9-2.9-2.7-2.9c-1.9,0-2.7,1.1-2.7,2.9v1.1H73.1 M67.7,394.8v2.7c0,2,1.2,2.9,2.7,2.9
	c2,0,2.7-1.3,2.7-2.8h4.7c-0.2,4.1-2.7,6.6-7.4,6.6c-4.4,0-7.4-2.7-7.4-7.1v-6.6c0-4.4,3-7.2,7.4-7.2c4.3,0,7.4,2.7,7.4,6.9v4.7
	H67.7V394.8z"/>
<path class="st75" d="M8.3,398.7l2.5-3.3c0,0,1.9,3.3,3.2,4.3c0.9,0.7-2.1,0.8-2.1,0.8L8.3,398.7"/>
<path class="st75" d="M81.9,402.1c0-0.6-0.2-1-0.6-1.4s-0.9-0.6-1.4-0.6s-1,0.2-1.4,0.6s-0.6,0.9-0.6,1.4s0.2,1,0.6,1.4
	s0.9,0.6,1.4,0.6s1-0.2,1.4-0.6S81.9,402.6,81.9,402.1"/>
<path class="st4" d="M47.7,566.4c0-10.1-8.2-18.3-18.3-18.3s-18.3,8.2-18.3,18.3c0,1.3,0.1,2.5,0.4,3.7h35.9
	C47.6,568.9,47.7,567.6,47.7,566.4"/>
<path class="st74" d="M45.2,562.4h-4c0.2,0.1,0.6,0.6,0.6,1.7v3.6h0.1c0.7,0,1.3,0.6,1.3,1.3c0,0.3-0.1,0.6-0.3,0.8h2.3
	c0.2,0,0.4-0.2,0.4-0.4v-6.6C45.6,562.6,45.4,562.4,45.2,562.4L45.2,562.4z"/>
<path class="st74" d="M28.3,551.7c6.3,0,11.7,3.7,14.1,9.1h2.9c-2.3-6.5-8.5-11.2-15.8-11.2c-9.3,0-16.8,7.5-16.8,16.7
	c0,1,0.1,1.9,0.2,2.9c-0.1-0.7-0.1-1.3-0.1-2C12.8,558.6,19.7,551.7,28.3,551.7"/>
<path class="st75" d="M43.5,566.9l0.1,0.3c-0.1,0-0.1,0-0.1,0.1v0.1c0,0.1,0,0.1,0.1,0.2c0.1,0,0.1,0.1,0.3,0.1c0.1,0,0.2,0,0.3-0.1
	c0.1,0,0.1-0.1,0.1-0.2s0-0.1-0.1-0.1c0,0-0.1-0.1-0.2-0.1l0.1-0.3c0.1,0,0.3,0.1,0.3,0.2c0.1,0.1,0.1,0.2,0.1,0.4s-0.1,0.3-0.2,0.4
	c-0.1,0.1-0.3,0.2-0.5,0.2s-0.4-0.1-0.5-0.2c-0.1-0.1-0.2-0.2-0.2-0.4c0-0.1,0-0.3,0.1-0.4S43.4,566.9,43.5,566.9"/>
<path class="st75" d="M43.8,566.4c0.1,0,0.2,0,0.3-0.1s0.1-0.1,0.1-0.2c0-0.1,0-0.2-0.1-0.2c-0.1-0.1-0.2-0.1-0.3-0.1
	s-0.2,0-0.3,0.1s-0.1,0.1-0.1,0.2c0,0.1,0,0.2,0.1,0.2C43.5,566.3,43.6,566.4,43.8,566.4 M43.7,566.7c-0.1,0-0.2,0-0.3-0.1
	s-0.2-0.1-0.2-0.2c-0.1-0.1-0.1-0.2-0.1-0.3c0-0.2,0.1-0.3,0.2-0.5c0.1-0.1,0.3-0.2,0.5-0.2s0.3,0.1,0.5,0.2
	c0.1,0.1,0.2,0.3,0.2,0.4s0,0.2-0.1,0.3s-0.1,0.2-0.2,0.2C44,566.7,43.9,566.7,43.7,566.7L43.7,566.7z"/>
<path class="st75" d="M43.1,565.2v-0.3h0.2c-0.1-0.1-0.2-0.2-0.2-0.4v-0.2c0-0.1,0.1-0.1,0.1-0.1c-0.1-0.1-0.1-0.1-0.1-0.2v-0.2
	c0-0.1,0-0.2,0.1-0.2c0-0.1,0.1-0.1,0.2-0.1h0.3h0.8v0.3h-0.7h-0.2l-0.1,0.1v0.1l0.1,0.1h0.3h0.6v0.3h-0.7h-0.2c0,0-0.1,0-0.1,0.1
	v0.1v0.1l0.1,0.1h0.3h0.6v0.3h-1.4"/>
<path class="st75" d="M28.4,560.3c0,0.5-0.4,0.9-0.9,0.9s-0.9-0.4-0.9-0.9s0.4-0.9,0.9-0.9S28.4,559.8,28.4,560.3"/>
<path class="st75" d="M20.3,569.7V560h1.8v2.8c0.6-0.6,1.2-1,2-1c1.1,0,1.7,0.6,1.7,2v5.9H24V564c0-0.5-0.2-0.9-0.7-0.9
	c-0.4,0-0.8,0.4-1.2,0.7v5.9H20.3"/>
<rect x="26.6" y="561.9" class="st75" width="1.8" height="7.8"/>
<path class="st75" d="M18.3,564.3c-0.2-0.7-0.7-1.1-1.2-1.1c-0.4,0-0.7,0.3-0.7,0.7c0,1.2,3.5,1.2,3.5,3.5c0,1.5-1.1,2.4-2.6,2.4
	c-1.1,0-2.1-0.3-3-2.1l1.3-0.4l0.6,0.9l0.2-0.2c0.2,0.2,0.5,0.4,0.9,0.4c0.5,0,0.9-0.3,0.9-0.7c0-1.5-3.5-1.1-3.5-3.7
	c0-1.5,1.2-2.2,2.5-2.2s2.3,0.8,2.7,1.9L18.3,564.3"/>
<path class="st75" d="M29.3,569.7v-7.8H31v0.9c0.7-0.6,1.3-1,2-1c1.1,0,1.7,0.6,1.7,2v5.9h-1.8V564c0-0.5-0.2-0.9-0.7-0.9
	c-0.4,0-0.8,0.4-1.2,0.7v5.9H29.3"/>
<path class="st75" d="M39.2,564.8v-0.4c0-0.7-0.3-1.1-1.1-1.1c-0.7,0-1.1,0.4-1.1,1.1v0.4H39.2 M37.1,566.2v1c0,0.8,0.5,1.1,1.1,1.1
	c0.8,0,1.1-0.5,1.1-1.1H41c-0.1,1.6-1,2.5-2.9,2.5c-1.7,0-2.9-1.1-2.9-2.8v-2.5c0-1.7,1.1-2.8,2.9-2.8c1.7,0,2.9,1.1,2.9,2.6v1.8
	h-3.9V566.2z"/>
<path class="st75" d="M14.2,567.7l1-1.3c0,0,0.7,1.3,1.2,1.7c0.3,0.3-0.8,0.3-0.8,0.3L14.2,567.7"/>
<path class="st75" d="M42.6,569c0-0.2-0.1-0.4-0.2-0.5s-0.3-0.2-0.5-0.2s-0.4,0.1-0.5,0.2s-0.2,0.3-0.2,0.5s0.1,0.4,0.2,0.5
	s0.3,0.2,0.5,0.2s0.4-0.1,0.5-0.2S42.6,569.2,42.6,569"/>
<path class="st55" d="M108.2,68.8l2.1,4.1l4.3,0.9l-3,3.4l0.5,4.6l-4-2l-4,2l0.5-4.6l-3-3.4l4.3-0.9L108.2,68.8"/>
<path class="st76" d="M8,601l16.7,16.2L39.4,601H8z"/>
</svg>
